<?xml version="1.0" encoding="UTF-8"?>
<svg width="18px" height="18px" viewBox="0 0 18 18" version="1.1" xmlns="http://www.w3.org/2000/svg" xmlns:xlink="http://www.w3.org/1999/xlink">
    <!-- Generator: sketchtool 52.2 (67145) - http://www.bohemiancoding.com/sketch -->
    <title>F9539682-6DBE-43FC-A86C-29DA4BAA6995@svg</title>
    <desc>Created with sketchtool.</desc>
    <g id="Design" stroke="none" stroke-width="1" fill="none" fill-rule="evenodd">
        <g id="Landlords-UI" transform="translate(-1411.000000, -6481.000000)">
            <g id="Bottom" transform="translate(0.000000, 5460.000000)">
                <g id="Footer" transform="translate(0.000000, 318.000000)">
                    <g id="Group">
                        <g transform="translate(0.000000, 32.000000)">
                            <g transform="translate(0.000000, 611.000000)">
                                <g id="Group-8" transform="translate(1411.000000, 60.000000)">
                                    <g id="facebook">
                                        <rect id="Rectangle-2" fill="#FFFFFF" x="3" y="1" width="14" height="17"></rect>
                                        <path d="M18,0.992410714 L18,17.0035714 C18,17.5540179 17.5540179,17.9959821 17.0075893,17.9959821 L12.4191964,17.9959821 L12.4191964,11.0290179 L14.7575893,11.0290179 L15.1071429,8.31294643 L12.4151786,8.31294643 L12.4151786,6.57723214 C12.4151786,5.78973214 12.6321429,5.25535714 13.7611607,5.25535714 L15.1995536,5.25535714 L15.1995536,2.82455357 C14.9504464,2.79241071 14.0986607,2.71607143 13.1022321,2.71607143 C11.0290179,2.71607143 9.60669643,3.98169643 9.60669643,6.30803571 L9.60669643,8.31294643 L7.26026786,8.31294643 L7.26026786,11.0290179 L9.60669643,11.0290179 L9.60669643,18 L0.992410714,18 C0.445982143,18 0,17.5540179 0,17.0075893 L0,0.992410714 C0,0.445982143 0.445982143,0 0.992410714,0 L17.0035714,0 C17.5540179,0 18,0.445982143 18,0.992410714 Z" id="Shape" fill="#3B5998" fill-rule="nonzero"></path>
                                    </g>
                                </g>
                            </g>
                        </g>
                    </g>
                </g>
            </g>
        </g>
    </g>
</svg>