<?xml version="1.0" encoding="UTF-8"?>
<svg width="787px" height="499px" viewBox="0 0 787 499" version="1.1" xmlns="http://www.w3.org/2000/svg" xmlns:xlink="http://www.w3.org/1999/xlink">
    <!-- Generator: Sketch 54.1 (76490) - https://sketchapp.com -->
    <title>map@svg</title>
    <desc>Created with Sketch.</desc>
    <defs>
        <polygon id="path-1" points="555.341143 173.74601 556.783556 186.895732 560.856251 221.763706 564.165316 221.594032 566.116816 220.915337 569.171338 222.442401 570.613751 226.005552 575.195533 226.090389 576.722794 227.787127 578.165207 227.787127 580.201555 226.59941 582.831837 227.023595 584.104554 228.126475 585.631815 226.429736 587.583315 225.242019 589.619663 224.902672 590.12875 227.193269 591.486315 228.041638 593.692358 229.738376 594.371141 229.90805 596.068097 229.823213 597.086271 229.314192 597.086271 227.532616 598.528684 226.260062 598.613532 222.18789 599.546858 218.62474 601.158966 217.52186 602.007445 218.115718 602.855923 219.048924 603.449858 219.218598 603.789249 218.879251 603.025619 216.588654 603.025619 214.722241 603.958945 213.534525 606.08014 210.480396 607.183162 209.207842 609.049814 209.632026 610.831618 208.359473 613.377053 205.559854 615.243705 202.420888 615.4134 197.839695 615.83764 193.597849 615.83764 189.69535 614.819466 186.980569 615.83764 185.453505 616.940661 184.435461 616.431574 182.060028 612.783118 160.341777 607.522553 163.480743 604.213488 165.431992 601.328662 168.570958 597.934749 171.879598 595.219619 172.558293 592.759032 172.982477 588.092402 175.188237 586.310598 175.357911 583.425772 172.727967 579.013685 173.236988 576.807642 171.964434 574.94099 170.861554"></polygon>
        <filter x="-235.4%" y="-136.6%" width="570.8%" height="516.9%" filterUnits="objectBoundingBox" id="filter-2">
            <feOffset dx="0" dy="50" in="SourceAlpha" result="shadowOffsetOuter1"></feOffset>
            <feGaussianBlur stdDeviation="40" in="shadowOffsetOuter1" result="shadowBlurOuter1"></feGaussianBlur>
            <feColorMatrix values="0 0 0 0 0.117647059   0 0 0 0 0.137254902   0 0 0 0 0.258823529  0 0 0 0.5 0" type="matrix" in="shadowBlurOuter1"></feColorMatrix>
        </filter>
    </defs>
    <g id="Design" stroke="none" stroke-width="1" fill="none" fill-rule="evenodd">
        <g id="Landlords-UI" transform="translate(-854.000000, -3565.000000)">
            <g id="Map-2" transform="translate(56.000000, 3368.000000)">
                <g id="Map">
                    <g id="map-2" transform="translate(798.000000, 197.000000)">
                        <g id="map">
                            <g id="outlines" transform="translate(8.000000, 0.000000)" fill-rule="nonzero">
                                <path d="M129.045629,379.400401 L128.791101,451.734516 L130.148583,452.58152 L132.778705,452.75092 L134.051344,451.819216 L136.257252,451.819216 L136.426937,454.275527 L142.365921,460.035152 L142.790134,462.237362 L145.674783,460.628055 L146.183839,460.458654 L146.438367,457.832943 L147.711006,456.477737 L148.644275,456.308336 L150.256285,455.03783 L152.886406,456.816538 L153.395462,459.272849 L155.007472,460.204553 L155.940741,462.237362 L159.249603,463.761968 L162.134252,468.84399 L164.425003,472.147305 L166.376383,474.434215 L167.649023,477.568128 L171.891154,479.092735 L176.30297,480.871443 L177.151396,484.598259 L177.57561,487.223971 L176.727183,490.103783 L175.200016,492.051892 L173.842534,491.374289 L172.569895,488.748577 L170.279144,487.478072 L168.751977,486.546368 L168.073236,487.223971 L169.345875,489.51088 L169.51556,492.644794 L168.582292,493.068296 L166.970282,491.458989 L165.188587,490.357884 L165.6128,491.71309 L166.715754,493.237697 L166.037013,493.9153 C166.037013,493.9153 165.358272,493.661199 164.934059,493.068296 C164.509846,492.560094 163.152364,490.188483 163.152364,490.188483 L162.303937,488.240375 C162.303937,488.240375 162.04941,489.34148 161.455511,489.087379 C160.946455,488.833278 160.352557,487.816873 160.352557,487.816873 L161.879724,486.207566 L160.607085,484.937061 L160.607085,480.702042 L159.928344,480.702042 L159.249603,483.581855 L158.316334,484.005356 L157.467908,480.871443 L156.958852,477.737529 L156.280111,477.314027 L156.534639,482.141948 L156.534639,483.073652 L155.262,481.972548 L152.207665,476.890526 L150.42597,476.467024 L149.916915,473.33311 L148.559433,470.876799 L147.201951,469.945095 L147.201951,467.996987 L148.983646,466.895882 L148.559433,466.641781 L146.353524,467.149983 L143.468875,465.117174 L141.262967,462.660864 L137.190521,460.458654 L133.796816,458.256444 L134.89977,455.546033 L134.89977,454.190827 L133.372603,455.546033 L130.912167,456.477737 L127.77299,455.546033 L122.93696,453.513224 L118.270616,453.513224 L117.76156,453.936726 L112.24679,450.633411 L110.465095,450.37931 L108.174344,445.466689 L105.12001,445.72079 L102.065675,446.991295 L102.489888,450.802812 L103.423157,448.346501 L104.271583,448.600602 L102.998944,452.327419 L105.713908,450.040509 L106.222964,451.395715 L102.914101,455.122531 L101.811147,454.86843 L101.386934,453.259123 L100.28398,452.58152 L99.1810261,453.513224 L96.8902753,451.988617 L94.260154,453.767325 L92.7329867,455.546033 L89.8483376,457.32474 L85.8607343,457.15534 L85.4365212,455.376632 L88.5756982,454.86843 L88.5756982,453.767325 L86.6243179,453.259123 L87.4727441,451.226314 L89.4241245,447.922999 L89.4241245,446.398393 L89.5938097,445.72079 L93.3268851,443.772681 L94.1753113,444.873786 L96.4660621,444.873786 L95.363108,442.671577 L92.223931,442.417475 L87.9817999,444.704385 L85.9455769,447.584198 L84.4184097,449.786408 L83.4851409,451.734516 L79.9217507,453.005022 L77.2916294,455.207231 L77.0371015,456.562437 L78.9884818,457.409441 L79.6672228,459.188148 L77.376472,461.89856 L71.8617015,465.455976 L65.2439769,469.013391 L63.4622819,469.945095 L58.9656229,470.876799 L54.4689638,472.824908 L55.9961311,473.926013 L54.7234917,475.196518 L54.2992786,476.128222 L52.0085278,475.281219 L49.2935639,475.450619 L48.6148229,477.398728 L47.7663966,477.398728 L48.0209245,475.365919 L44.9665901,476.467024 L42.506154,477.314027 L39.6215049,476.212923 L37.1610688,477.82223 L34.4461049,477.82223 L32.6644098,478.923334 L31.3069278,479.600937 L29.5252327,479.346836 L27.3193245,478.415132 L25.3679442,478.923334 L24.519518,479.770338 L23.162036,478.838634 L23.162036,477.229327 L25.7921573,476.128222 L31.1372426,476.636424 L34.870318,475.281219 L36.6520131,473.502511 L39.1124491,472.994309 L40.6396163,472.316706 L42.9303671,472.486106 L44.2878491,473.587211 L45.1362753,473.33311 L47.0876557,471.0462 L49.717777,470.199196 L52.6024261,469.690994 L53.7053802,469.436893 L54.214436,469.860395 L54.893177,469.860395 L55.9961311,466.726481 L59.389836,465.455976 L61.0018458,462.322062 L62.9532261,458.510546 L64.3107081,457.24004 L64.565236,455.03783 L63.207754,456.138935 L60.3231048,456.647137 L59.8140491,454.614329 L58.711095,454.360227 L57.8626688,455.207231 L57.6929835,457.663542 L56.4203442,457.494141 L55.1477048,452.58152 L54.0447507,453.682624 L53.1114819,453.259123 L52.856954,451.649816 L49.4632491,451.819216 L47.681554,452.75092 L45.4756458,452.496819 L46.7482852,451.226314 L47.1724983,449.024104 L46.6634426,447.414797 L47.9360819,446.567794 L49.039036,446.398393 L48.5299803,444.873786 L48.5299803,441.14697 L47.681554,440.299966 L47.002813,441.570472 L41.827413,441.570472 L40.5547737,440.469367 L40.045718,437.166053 L38.2640229,434.116839 L38.2640229,433.269836 L40.045718,432.592233 L40.2154032,430.813525 L41.1486721,429.881821 L40.4699311,429.458319 L39.366977,429.881821 L38.4337081,427.594911 L39.2821344,423.359892 L43.1000524,420.649481 L45.3059606,419.294275 L46.9179704,416.160361 L49.2087212,415.059256 L51.4146294,415.99096 L51.6691573,418.023769 L53.7053802,417.769668 L56.4203442,415.736859 L57.7778261,416.245062 L58.6262524,416.753264 L59.9837343,416.753264 L61.9351147,415.652159 L62.6138556,411.925343 C62.6138556,411.925343 62.8683835,409.469032 63.4622819,409.04553 C63.9713376,408.622028 64.3107081,408.198526 64.3107081,408.198526 L63.3774392,406.589219 L61.1715311,407.266822 L58.4565671,407.944425 L56.8445573,407.520924 L53.7902229,405.996317 L49.5480917,405.826916 L46.4937573,402.693003 L46.9179704,399.389688 L47.4270262,397.356879 L45.6453311,395.832273 L44.0333212,392.698359 L44.4575344,392.020756 L50.2268327,391.597254 L52.0085278,391.597254 L52.856954,392.444258 L53.3660098,392.444258 L53.1963245,391.089052 L56.5051868,390.58085 L58.711095,390.834951 L59.9837343,391.766655 L58.711095,393.545363 L58.2868819,394.815868 L60.5776327,396.171074 L64.8197638,397.695681 L66.346931,396.848677 L64.3955507,393.121861 L63.5471245,390.411449 L64.3955507,389.733846 L61.5109015,388.124539 L61.0866884,387.192835 L61.5109015,385.837629 L60.8321606,382.534315 L58.3717245,378.553397 L56.3355016,374.995982 L58.7959376,373.386675 L61.5109015,373.386675 L63.0380688,373.894877 L66.6014589,373.725476 L69.740636,370.676263 L70.6739048,368.050552 L73.8130819,366.017743 L75.1705638,366.864747 L77.4613146,366.356544 L80.6004917,364.577837 L81.5337605,364.408436 L82.3821868,365.086039 L86.2001048,364.916638 L88.4908556,362.290927 L89.4241245,362.290927 L92.4784589,364.323735 L94.0904687,366.102443 L93.6662556,367.034147 L94.1753113,367.965851 L95.5327933,366.610645 L98.8416556,366.864747 L99.0961835,369.99866 L100.708193,371.269166 L106.73202,371.777368 L112.077105,375.334783 L113.349744,374.48778 L117.76156,376.689989 L119.543256,376.181787 L121.155265,375.504184 L125.227711,377.113491 L129.045629,379.400401 Z M31.3917704,403.878808 L33.1734655,408.367927 L33.0037803,409.214931 L30.5433442,408.96083 L29.016177,405.572815 L27.4890098,404.30231 L25.4527868,404.30231 L25.2831016,402.1001 L26.8102688,400.067291 L27.7435377,402.1001 L29.016177,403.370605 L31.3917704,403.878808 Z M29.1858622,432.253431 L32.3250393,432.931034 L35.4642163,433.778038 L36.1429573,434.625042 L34.7854754,437.758955 L32.155354,437.589554 L29.2707049,434.540341 L29.1858622,432.253431 Z M11.6234393,420.310679 L12.5567082,422.512889 L13.489977,423.868095 L12.5567082,424.545698 L10.7750131,421.919986 L10.7750131,420.310679 L11.6234393,420.310679 Z M0,482.226649 L2.88464918,480.27854 L5.76929835,479.431537 L7.97520654,479.685638 L8.39941966,481.040844 L10.0114295,481.464345 L11.6234393,479.855038 L11.3689115,478.499833 L13.6596623,477.99163 L16.1200983,480.19384 L15.1868295,481.718447 L11.4537541,482.650151 L9.16300326,482.226649 L6.02382622,481.294945 L2.29075082,482.56545 L0.933268851,482.819551 L0,482.226649 Z M41.4880426,478.415132 L42.8455245,480.024439 L44.6272196,478.669233 L43.3545803,477.568128 L41.4880426,478.415132 Z M43.9484786,480.956143 L44.8817475,479.008035 L46.6634426,479.262136 L45.9847016,480.871443 L43.9484786,480.871443 L43.9484786,480.956143 Z M63.9713376,479.346836 L65.2439769,480.871443 L66.0924032,479.939739 L65.4136622,478.330432 L63.9713376,479.346836 Z M71.4374884,468.75929 L72.3707573,473.671912 L74.8311933,474.349514 L79.0733245,471.893204 L82.8063999,469.690994 L81.4489179,467.658185 L81.873131,465.625376 L80.0914359,466.726481 L77.6309999,466.048878 L78.9884818,465.117174 L80.6004917,465.794777 L83.909354,464.270171 L84.3335671,462.999665 L82.2973441,462.322062 L82.9760851,460.712755 L80.6853343,462.322062 L76.697731,465.371275 L72.6252851,467.827586 L71.4374884,468.75929 Z M107.325918,451.988617 L109.362141,450.718112 L108.513715,449.193505 L106.986547,450.040509 L107.325918,451.988617 Z" id="AK" fill="#FFFFFF" opacity="0.200000003"></path>
                                <polygon id="AR" stroke="#979797" fill="#FFFFFF" opacity="0.200000003" points="490.644888 288.262804 485.21496 287.669902 485.978544 285.04419 488.608665 282.841981 489.117721 280.893872 487.590553 278.437562 460.525757 279.453966 440.757426 280.046869 420.734567 280.30097 422.007206 286.145295 422.092049 293.344827 423.279845 302.577167 423.534373 334.932708 425.316068 336.287913 427.861347 335.271509 430.321783 336.287913 430.661153 344.842651 452.041494 344.67325 474.779317 343.995647 475.542901 342.38634 475.288373 339.167726 473.846048 336.542015 475.118688 335.356209 473.930891 333.492801 474.524789 331.459992 475.458058 326.462671 477.748809 324.514562 477.070068 322.651154 480.463773 317.907933 482.584839 316.976229 482.499996 315.536323 482.075783 314.096417 484.536219 309.183795 486.657284 308.252091 486.82697 305.456979 488.608665 304.271174 489.372248 300.798459 488.184452 297.410444 491.747842 295.377635 492.00237 293.598928 493.020481 290.041512 493.784065 287.415801"></polygon>
                                <polygon id="AZ" fill="#26CFB1" points="106.986547 325.192165 106.73202 326.462671 107.156233 327.309674 123.191488 336.372614 133.457446 342.809842 145.929311 350.094074 160.182872 358.56411 170.618514 360.596919 192.168541 362.883829 197.259098 329.342483 203.198082 284.366587 206.931157 258.109473 186.059872 255.06026 134.5604 245.743219 134.390715 246.674923 132.184806 260.650484 130.403111 263.869098 128.027518 263.699697 127.009406 261.497488 124.803498 261.158686 123.785387 260.226982 122.852118 260.311683 121.070423 261.751589 120.815895 267.511214 120.561367 268.78172 120.137154 279.369266 118.864515 281.402075 118.525144 284.197187 120.900738 288.432205 121.834006 293.090725 122.427905 294.022429 123.361174 294.784733 123.021803 296.817542 121.579478 297.833946 118.694829 299.189152 117.337347 300.713759 115.979865 303.762972 115.555652 307.91329 113.010374 310.369601 111.398364 311.131904 111.313521 316.044525 110.804465 317.399731 111.228679 318.077334 114.537541 318.416136 113.773957 320.957147 112.331633 322.989956 109.192456 323.328757"></polygon>
                                <polygon id="CT" fill="#FFFFFF" opacity="0.200000003" points="715.22331 156.807832 718.277645 154.09742 719.889655 152.318713 720.568396 152.826915 722.859146 151.556409 727.270963 150.624705 733.209946 147.660192 732.700891 144.102777 732.02215 140.375961 730.664668 135.293938 727.016435 136.225643 708.520743 140.20656 709.029799 142.832271 710.302438 149.015398 710.302438 156.045529 709.538855 157.824237 710.981179 159.687645"></polygon>
                                <polygon id="DE" fill="#FFFFFF" opacity="0.200000003" points="700.291009 204.49414 699.442583 204.917642 696.388248 202.884833 694.861081 198.903915 693.249071 195.854702 691.297691 195.007698 689.515996 191.958485 689.940209 190.264478 690.364422 188.316369 690.449264 187.384665 689.940209 187.469366 688.497884 188.316369 686.801032 189.756276 686.631346 190.010377 687.819143 193.483092 689.770524 198.226312 692.909701 211.863072 697.151832 211.608971 702.242389 210.677267"></polygon>
                                <polygon id="GA" fill="#26CFB1" points="628.85352 371.353866 624.102333 370.760964 622.914537 372.116169 624.272019 376.097087 624.017491 379.400401 622.150953 378.892199 621.981268 376.351188 617.569451 376.351188 613.072792 376.94409 585.668625 378.553397 579.135743 378.299296 577.947947 377.282892 575.826881 373.640776 575.14814 370.845664 573.790658 370.083361 573.366445 369.659859 574.130029 367.796451 573.790658 363.13793 572.433176 359.326414 573.111917 355.176096 574.554242 351.110478 574.384556 348.992969 572.772547 348.400066 572.433176 345.689654 570.057583 342.725141 568.445573 337.473719 567.172934 331.544693 565.730609 327.479075 562.506589 313.927016 559.537097 307.150987 558.858357 302.661867 558.943199 300.713759 561.743006 300.459657 573.281602 299.104452 589.06233 297.410444 594.407415 296.47874 594.831629 297.664545 592.965091 298.426849 592.201507 300.290257 592.540878 301.984264 593.728674 303.33947 597.376907 305.62638 600.091871 305.54168 602.806835 309.522597 603.315891 310.877803 605.267271 313.249413 605.691484 314.689319 609.679088 316.213926 612.224366 318.077334 614.175747 320.618345 616.127127 321.71945 617.823979 323.244057 619.011776 325.530967 620.793471 327.140274 624.272019 328.66488 626.56277 333.746902 628.005094 338.066621 630.380688 338.659524 632.162383 340.268831 633.859235 345.096752 636.319671 346.451958 637.761996 345.774355 638.101366 346.790759 635.30156 352.042182 635.725773 354.244392 634.453133 357.801807 632.501753 366.271844 633.180494 371.607967"></polygon>
                                <polygon id="ID" fill="#FFFFFF" opacity="0.200000003" points="141.093282 18.5175401 137.020836 33.2638743 133.202918 50.9323713 130.318269 64.6707711 129.978898 72.8612967 130.99701 76.6219931 133.966501 78.8750229 133.796816 82.1868073 130.487954 85.9136235 126.670036 91.5038479 125.906452 93.9601586 124.888341 94.8918626 123.361174 95.5694656 119.712941 100.058585 119.37357 102.684297 119.0342 103.616001 119.543256 104.463004 121.749164 104.378304 122.682433 106.326412 120.64621 111.239034 119.628098 114.796449 112.161947 144.695679 129.72437 148.507196 163.237206 155.198525 192.762439 160.365248 196.919728 135.63274 200.143747 115.219951 197.852996 113.187142 197.513626 110.984933 196.834885 110.053229 195.05319 110.900232 194.459292 113.102442 191.744328 113.525944 188.435465 112.170738 185.211446 112.255438 183.09038 112.848341 180.205731 111.577835 178.169508 111.747236 176.133285 113.441243 174.436433 112.509539 173.842534 109.121525 174.436433 106.665214 172.315367 104.208903 169.51556 102.006694 167.22481 90.9109453 167.139967 86.930028 166.885439 86.8453276 166.715754 87.1841291 162.38878 90.148642 160.946455 89.9792412 158.486019 87.0994287 158.316334 84.4737173 164.255318 69.9645441 163.915947 68.321357 161.031298 67.3473027 160.522242 66.3478384 158.316334 63.4172056 154.413574 54.7523579 151.69861 53.4564422 150.001757 49.263774 151.104711 45.3421469 148.389747 38.921859 152.122823 20.6943396"></polygon>
                                <polygon id="IL" fill="#26CFB1" points="517.285471 176.627718 516.60673 174.425509 515.503776 171.291595 514.146294 169.766989 512.873655 167.564779 512.534284 162.906259 499.044307 164.430865 484.281691 165.277869 473.846048 165.277869 474.015734 167.056577 475.882271 167.81888 476.81554 169.004685 477.154911 170.19049 480.463773 173.070303 481.057671 175.103112 480.463773 177.898224 479.021448 181.032138 478.342707 183.319048 476.306485 184.928355 474.694475 185.436557 470.282658 186.537662 469.179704 190.010377 469.68876 190.942081 471.30077 192.466687 471.131085 196.108803 469.349389 197.464009 468.925176 198.565114 468.925176 200.936724 467.398009 201.444926 466.210212 202.461331 465.870842 203.477735 466.210212 205.171743 464.85273 206.272847 464.089147 208.644458 464.343675 211.947772 466.295055 217.876798 472.234039 224.314026 477.070068 227.44794 477.070068 231.174756 477.663966 232.19116 483.26358 232.699363 485.55433 233.885168 484.960432 236.849681 483.093894 242.101103 482.415153 244.642115 484.112006 247.776028 489.541934 252.265148 493.61438 252.942751 495.480917 257.262469 497.17777 260.142282 496.414186 262.513892 497.686825 265.732506 499.12915 267.511214 500.486632 267.257113 501.335058 265.393705 503.371281 263.953799 505.746875 263.106795 510.922275 265.224304 511.346488 265.054903 511.346488 264.123199 510.328376 261.836289 510.667747 259.464679 512.70397 258.109473 515.588619 257.093069 515.164406 255.991964 514.485665 254.297957 515.503776 253.196852 516.352202 250.909942 516.352202 247.521927 516.691573 243.371609 518.812639 240.830598 520.339806 237.611984 522.460871 234.223969 522.036658 229.73485 520.509491 227.024438 520.254963 224.229326 520.933704 219.740206 520.339806 213.64178 519.406537 200.259121 518.21874 187.299965 517.455157 177.390022"></polygon>
                                <polygon id="IN" fill="#26CFB1" points="520.848861 178.152325 522.121501 178.999329 523.05477 178.745228 524.836465 177.135921 526.95753 175.611314 539.090025 174.67961 554.701068 173.155003 556.05855 186.28356 560.215838 222.365918 559.706783 224.822228 560.809737 226.177434 560.979422 227.278539 559.028042 228.633745 555.973707 230.073651 553.258743 230.412453 552.83453 234.47807 548.846927 237.527284 546.386491 240.915298 546.556176 242.948107 546.131963 244.133912 543.162471 244.133912 541.974675 242.694006 537.562858 245.235017 537.732543 247.860729 536.96896 248.030129 536.544747 247.267826 534.508524 245.82792 531.454189 247.098425 530.266393 249.554736 529.248281 249.046534 527.890799 247.521927 524.157724 247.945429 519.321694 248.792433 517.200629 249.893537 517.200629 247.691328 517.539999 243.71041 519.49138 241.2541 521.018547 237.950785 523.309298 234.39337 522.885084 229.480749 521.357917 226.855037 521.103389 224.144625 521.78213 219.655506 521.188232 213.64178 520.424648 202.969533 518.303583 177.474722"></polygon>
                                <polygon id="KS" fill="#FFFFFF" opacity="0.200000003" points="404.614468 214.912285 367.453399 214.404083 365.747251 214.353739 333.007295 213.387678 314.596445 212.625375 310.948213 267.511214 331.56497 268.358218 369.489622 270.136925 408.771757 270.645128 419.461927 270.391027 420.055826 240.745898 419.037714 231.344157 416.916649 229.650149 414.880426 227.109138 412.929045 224.059925 413.438101 221.518914 414.880426 220.333109 414.880426 218.554401 414.201685 217.961498 411.995776 217.792098 409.026285 214.912285"></polygon>
                                <polygon id="KY" fill="#FFFFFF" opacity="0.200000003" points="507.52857 276.150652 518.21874 275.557749 518.303583 272.085034 521.951816 272.085034 547.743973 269.374622 586.007996 265.732506 590.759183 262.683293 594.068045 260.904585 594.152888 259.295278 599.243445 252.68865 602.721993 249.639436 604.503688 247.606627 601.703881 245.91262 599.582815 243.62571 597.037537 240.407096 596.613324 238.543688 594.407415 237.357883 593.643832 235.748576 593.474147 230.581853 591.268238 228.887846 589.656229 227.956142 589.232015 226.008033 588.129061 226.177434 586.432209 227.193839 584.311143 229.480749 582.699134 228.040842 580.578068 227.61734 578.541845 228.803146 576.590465 228.803146 575.063297 227.109138 570.312111 227.024438 568.784943 223.212921 566.324507 221.942416 564.542812 222.620019 560.979422 222.789419 560.555209 224.568127 561.57332 225.838633 561.827848 227.61734 559.452255 229.311348 556.228235 230.835954 554.022327 231.174756 553.598114 234.986272 549.440825 238.035486 547.234917 241.169399 547.404602 243.032807 546.641019 244.980916 542.823101 244.896216 541.720147 243.795111 538.411284 245.658519 538.58097 248.453631 536.544747 248.961833 535.866006 247.776028 534.423681 246.759624 532.13293 247.691328 530.605763 250.655841 528.739225 249.808837 527.551429 248.453631 524.412252 248.792433 519.661065 249.639436 517.285471 250.740541 516.26736 253.620354 515.418934 254.467357 516.691573 257.601271 513.128183 258.787076 511.516173 259.972881 511.176802 261.836289 512.194914 263.869098 512.194914 265.732506 510.837432 266.071308 505.662032 263.953799 503.710652 264.716102 502.013799 265.901907 501.335058 267.426514 502.777383 269.459323 502.013799 270.983929 501.928957 273.779041 499.892734 274.880146 498.111039 276.320052"></polygon>
                                <polygon id="LA" fill="#26CFB1" points="439.399944 406.67392 446.272196 406.419819 455.010986 409.469032 460.525757 410.400736 463.664934 409.130231 466.379898 410.061935 469.094862 410.908938 469.773603 409.130231 467.058639 408.198526 464.85273 408.622028 462.56198 407.266822 463.240721 405.996317 465.870842 405.149313 467.398009 406.419819 468.925176 405.572815 471.64014 406.081017 472.91278 408.113826 473.167307 410.061935 476.985225 410.316036 478.512393 411.840642 477.833652 413.195848 476.730698 413.873451 478.08818 415.228657 485.21496 418.27787 488.269294 417.176766 489.117721 415.143957 491.323629 414.635755 492.850796 413.365249 493.95375 414.212253 494.632491 416.668563 492.681111 417.346166 493.190166 417.854369 496.074816 416.753264 498.026196 413.873451 498.704937 413.449949 496.923242 413.195848 497.601983 411.840642 497.432298 410.570137 499.213993 410.146635 500.147262 409.04553 500.656317 409.723133 501.165373 412.348845 504.728763 412.857047 508.122468 414.466354 508.970894 415.736859 511.43133 415.736859 512.364599 416.583863 514.31598 413.958152 514.31598 412.687646 513.213025 412.687646 510.328376 410.400736 505.407504 409.723133 502.69254 407.775025 503.625809 405.488115 505.577189 405.742216 505.746875 405.234014 504.219707 404.38701 504.219707 403.963508 506.934671 403.963508 508.461839 401.337797 507.358884 399.72849 507.104357 397.44158 505.831717 397.61098 504.219707 399.389688 503.710652 401.591898 501.08053 401.083696 500.232104 399.559089 501.759271 397.949782 503.371281 396.509876 501.504743 391.004352 498.620094 388.124539 499.468521 381.941412 499.298835 381.51791 498.195881 381.687311 470.112973 382.873116 469.434232 380.840307 470.112973 373.640776 477.409439 361.105121 476.645855 358.902912 477.833652 358.56411 478.173022 356.870103 476.306485 355.176096 476.391327 353.566789 474.694475 349.755272 474.355104 345.435553 474.439947 344.842651 452.041494 345.520254 430.661153 345.604954 431.000524 353.82089 431.594422 361.867425 432.018635 365.001338 434.224544 368.812855 434.988127 372.539671 438.63636 377.621693 438.890888 380.247405 439.399944 380.925008 438.806045 387.955138 436.430452 391.851355 437.448563 393.884164 437.02435 396.086374 436.345609 402.269501 435.242655 404.810512 435.41234 407.944425"></polygon>
                                <path d="M745.342441,141.222964 L744.918228,139.274856 L745.596969,138.00435 L748.057405,136.733845 L748.736146,139.359556 L748.311933,140.884163 L746.27571,142.154668 L746.27571,143.001672 L747.88772,141.731167 L751.196582,137.91965 L754.505445,136.310343 L758.068835,135.039837 L757.814307,133.007029 L756.965881,130.550718 L755.353871,128.517909 L753.826704,127.840306 L752.045009,128.009707 L751.620796,128.433209 L752.469222,129.534313 L753.741861,128.85671 L755.523556,130.211916 L756.202297,132.498826 L754.67513,134.023433 L752.72375,134.870437 L749.669415,134.446935 L746.360553,129.364913 L744.409173,127.162703 L742.882005,127.162703 L741.948737,127.840306 L740.336727,125.638096 L740.591255,124.367591 L742.627478,119.963172 L740.167041,116.236356 L737.027864,117.760962 L735.500697,120.217273 L719.974497,124.19819 L708.266215,126.315699 L707.75716,135.293938 L708.351058,139.444257 L727.016435,135.378639 L736.518809,133.007029 L738.215661,134.362234 L741.10031,138.00435 L743.560746,141.985268 L745.342441,141.222964 Z M755.947769,142.408769 L757.814307,141.815867 L758.23852,140.375961 L759.086946,140.460661 L759.935373,142.408769 L758.832418,142.832271 L755.523556,142.916972 L755.947769,142.408769 Z M747.972563,143.086372 L749.923943,140.884163 L751.281425,140.884163 L752.808592,142.154668 L750.772369,143.001672 L748.905832,143.848676 L747.972563,143.086372 Z" id="MA" fill="#FFFFFF" opacity="0.200000003"></path>
                                <path d="M700.630379,218.808502 L702.072704,215.589888 L702.496917,211.52427 L697.151832,212.455974 L692.23096,212.710075 L689.00694,198.480414 L687.05556,193.821893 L685.78292,189.925676 L666.947858,193.567792 L635.047032,200.00502 L636.743884,208.813859 L640.81633,204.66354 L642.937396,204.070638 L644.125192,202.800132 L645.65236,200.513222 L647.009842,201.106125 L649.21575,200.936724 L651.421658,199.158017 L653.11851,197.887511 L654.900206,197.379309 L656.172845,198.311013 L658.463596,199.496818 L660.075606,201.021425 L661.17856,202.20723 L665.251006,203.562436 L664.74195,206.018746 L669.662822,207.797454 L671.444517,205.595245 L674.583694,207.712754 L672.801999,210.507866 L672.208101,213.302978 L670.680933,215.505188 L670.680933,217.283895 L670.935461,217.961498 L672.632314,219.062603 L675.516963,219.994307 L679.165196,219.909607 L681.795317,220.756611 L683.577012,221.010712 L684.425438,219.232004 L683.152799,217.453296 L683.152799,215.92869 L681.116576,214.149982 L679.334881,209.491461 L680.437835,205.002342 L680.26815,203.223634 L679.165196,202.122529 C679.165196,202.122529 680.437835,200.767324 680.437835,200.174421 C680.437835,199.666219 680.862048,198.395713 680.862048,198.395713 L682.474058,197.294608 L684.086068,195.939402 L684.510281,196.786406 L683.237642,198.141612 L682.134687,201.275526 L682.389215,202.20723 L683.916383,202.461331 L684.340596,207.119851 L682.558901,207.966855 L682.813428,211.016068 L683.237642,210.846667 L684.17091,209.23736 L685.528392,210.761967 L684.17091,211.863072 L683.916383,214.742884 L686.122291,217.622697 L689.431153,218.046199 L690.788635,217.368596 L693.503599,220.926011 L694.352025,221.264813 L700.630379,218.808502 Z M688.328199,218.977903 L689.261468,221.095412 L689.431153,222.620019 L690.364422,224.229326 C690.364422,224.229326 691.128005,223.467022 691.128005,223.212921 C691.128005,222.95882 690.534107,220.58721 690.534107,220.58721 L689.940209,218.639101 L688.328199,218.977903 Z" id="MD" fill="#26CFB1"></path>
                                <path d="M539.174868,173.832606 L555.379809,172.223299 L555.549494,173.155003 L563.948914,171.884498 L574.130029,170.444592 L574.214871,169.936389 L574.384556,168.665884 L576.166252,165.53197 L577.863104,164.092064 L577.693419,159.772345 L579.050901,158.417139 L579.98417,158.163038 L580.153855,155.113825 L581.426494,152.572814 L582.359763,153.081016 L582.529448,153.589218 L583.208189,153.758619 L584.820199,152.911615 L584.480829,145.203882 L581.765865,138.258451 L579.814484,130.550718 L577.778261,127.840306 L575.572353,126.315699 L574.214871,127.247403 L570.906009,128.77201 L569.293999,133.007029 L567.003248,136.140942 L566.069979,136.649144 L564.79734,136.140942 C564.79734,136.140942 562.591432,134.870437 562.761117,134.362234 C562.930802,133.854032 563.18533,130.127216 563.18533,130.127216 L566.069979,129.026111 L566.74872,126.146299 L567.257776,123.944089 L569.293999,122.588883 L569.039471,114.118846 L567.681989,112.170738 L566.579035,111.493135 L565.900294,109.714427 L566.579035,109.036824 L567.936517,109.290925 L568.106202,107.935719 L565.900294,106.072311 L564.79734,103.870102 L562.591432,103.870102 L558.773514,102.599596 L554.10717,99.7197836 L551.816419,99.7197836 L551.307363,100.227986 L550.458937,99.804484 L547.828816,97.8563755 L545.368379,99.3809822 L542.907943,101.329091 L543.162471,104.378304 L544.010898,104.632405 L545.792593,105.055907 L546.216806,105.73351 L544.010898,106.411113 L541.804989,106.665214 L540.53235,108.189821 L540.277822,109.968528 L540.53235,111.323734 L540.786878,115.982254 L537.732543,117.760962 L537.223488,117.591561 L537.223488,114.034146 L538.326442,112.001337 L538.835498,109.968528 L538.156757,109.290925 L536.544747,109.968528 L535.69632,113.525944 L533.40557,114.457648 L531.878402,116.066955 L531.708717,116.913958 L532.217773,117.591561 L531.708717,119.793771 L529.757337,120.217273 L529.757337,121.148977 L530.436078,123.181786 L529.502809,128.348508 L528.145327,131.736523 L528.654383,135.71744 L529.078596,136.649144 L528.399855,138.681953 L528.145327,139.359556 L527.890799,141.646466 L530.945134,146.728488 L533.40557,152.234012 L534.678209,156.29963 L533.999468,160.280547 L533.151042,165.362569 L531.114819,169.766989 L530.860291,172.053899 L528.145327,174.67961 L539.174868,173.832606 Z M510.922275,112.509539 L509.819321,111.577835 L508.292153,102.768997 L505.152976,101.667892 L503.710652,99.7197836 L493.020481,97.3481733 L490.644888,96.4164693 L483.772635,94.5530611 L477.154911,93.7060575 L473.846048,89.2169379 L474.439947,88.7934361 L476.730698,88.1158331 L479.785032,86.1677246 L479.785032,85.320721 L480.294088,84.8125187 L485.384645,83.9655151 L487.420868,82.356208 L491.153943,80.5775003 L491.323629,79.4763955 L492.935639,77.0200848 L494.462806,76.3424819 L495.56576,74.8178752 L497.51714,72.8697668 L501.250216,70.8369579 L505.237819,70.4134561 L506.171088,71.3451601 L505.91656,72.1921638 L502.777383,73.0391675 L501.504743,75.6648789 L499.553363,76.3424819 L499.12915,78.3752907 L497.092927,81.0857025 L496.838399,83.2879121 L497.51714,83.7114139 L498.365566,82.7797099 L501.419901,80.3233992 L502.522855,81.424504 L504.474235,81.424504 L507.189199,82.2715077 L508.461839,83.2032117 L509.734478,85.8289232 L512.025229,88.1158331 L515.334091,87.9464324 L516.60673,87.0994287 L517.964212,88.2005335 L519.321694,88.6240353 L520.424648,87.9464324 L521.357917,87.9464324 L522.715399,87.0994287 L526.109104,84.0502154 L528.993753,83.1185114 L534.593366,82.8644103 L538.411284,81.2551033 L540.617193,80.1539985 L541.889832,80.3233992 L541.889832,85.1513202 L542.314045,85.4054213 L544.774481,86.0830243 L546.386491,85.6595224 L551.561891,84.3043165 L552.49516,83.3726125 L553.767799,83.7961143 L553.767799,89.7251401 L556.482763,92.3508516 L557.585717,92.8590538 L558.688671,93.7060575 L557.585717,93.9601586 L556.906976,93.7060575 L553.767799,93.2825556 L551.986104,93.7907578 L550.034724,93.6213571 L547.31976,94.8918626 L545.792593,94.8918626 L540.87172,93.7907578 L536.459904,93.9601586 L534.847894,96.1623681 L528.908911,96.6705704 L526.872688,97.3481733 L525.939419,99.9738847 L524.836465,100.905589 L524.412252,100.736188 L523.139612,99.3809822 L519.321694,101.413791 L518.812639,101.413791 L517.87937,100.058585 L517.200629,100.227986 L515.588619,103.954802 L514.740193,107.342817 L512.025229,113.187142 L510.922275,112.509539 Z M485.808858,64.653831 L487.336025,62.8751232 L489.202563,62.1975203 L493.784065,58.8942059 L495.735445,58.3860037 L496.159658,58.8095055 L491.832684,63.1292243 L489.032878,64.7385314 L487.251183,65.5008347 L485.808858,64.653831 Z M558.943199,91.8426493 L559.452255,93.9601586 L562.167219,94.1295593 L563.270173,93.1131549 C563.270173,93.1131549 563.18533,91.8426493 562.930802,91.757949 C562.676275,91.5885482 561.57332,90.148642 561.57332,90.148642 L559.706783,90.3180427 L558.349301,90.4874434 L558.094773,91.4191475 L558.943199,91.8426493 Z" id="MI" fill="#26CFB1"></path>
                                <polygon id="MN" fill="#26CFB1" points="386.54299 51.6862045 386.033934 54.997989 386.033934 63.6967168 387.391416 67.9571454 389.003426 70.7691976 389.427639 79.1799442 390.954806 90.5721438 392.481973 96.7552707 392.821344 102.176094 392.821344 106.665214 391.463862 108.189821 389.936694 109.290925 389.936694 110.561431 390.700278 112.001337 394.178826 114.96585 394.772724 117.676262 394.772724 148.083694 445.932826 147.575492 463.919462 146.982589 463.495248 141.900567 461.968081 140.12186 455.859412 136.225643 452.805078 131.736523 449.920429 130.97422 448.223576 128.602609 445.508612 128.602609 442.539121 125.383995 442.114908 119.45497 442.19975 116.151655 443.472389 113.610644 442.878491 111.323734 440.502898 108.698023 442.369435 103.5313 446.950937 100.143285 447.969048 98.9574803 447.799363 92.1814508 447.969048 89.6404398 450.174957 87.0994287 453.398976 84.643118 454.50193 84.4737173 458.319848 80.2386988 459.847016 79.5610959 461.798396 76.2577815 463.834619 73.2085682 466.46474 71.0063586 470.537186 69.3123513 478.342707 65.8396361 481.65157 64.3150295 482.160625 62.366921 478.42755 62.7057225 477.833652 63.6374266 477.324596 63.6374266 475.797429 61.0117151 468.246435 61.2658162 467.398009 61.9434192 466.549583 61.9434192 466.12537 60.8423144 465.446629 59.3177078 463.240721 59.7412096 460.525757 62.4516214 459.168275 63.1292243 456.538153 63.1292243 454.332245 62.2822207 454.332245 60.5035129 453.229291 60.3341122 452.805078 60.757614 450.59917 59.6565092 450.174957 57.2001985 448.902317 57.6237004 448.478104 58.4707041 446.441881 58.0472022 441.945222 56.0143934 438.63636 53.8121838 436.175924 53.8121838 435.07297 52.9651801 433.121589 53.4733823 432.188321 54.4050864 431.933793 55.5061912 427.861347 55.5061912 427.861347 53.7274834 422.516262 53.4733823 422.261734 52.2028768 418.189288 52.2028768 416.831806 50.8476709 415.559167 45.6809484 414.880426 41.0224281 413.268416 40.3448252 411.317035 39.9213233 410.80798 40.0907241 410.553452 47.0361543 385.015822 47.0107442"></polygon>
                                <polygon id="MO" fill="#26CFB1" points="495.56576 281.994977 495.989973 276.997655 499.553363 274.117843 501.165373 273.270839 501.165373 270.814528 501.759271 269.459323 500.826002 268.104117 498.78978 268.358218 497.008084 266.240709 495.56576 262.429192 496.329343 260.226982 494.632491 257.516571 493.105324 253.620354 489.202563 253.027451 483.433265 248.28423 481.566727 244.726815 482.245468 241.931703 484.112006 236.849681 484.621062 234.30867 483.009052 233.461666 477.154911 232.953464 476.221642 231.344157 476.221642 227.871441 471.724983 224.906929 465.616314 218.3003 463.664934 212.117173 463.240721 208.559757 463.834619 206.526949 461.628711 203.901237 460.610599 201.868428 454.077717 202.546031 445.593455 203.054233 404.190255 204.070638 405.293209 206.272847 405.208367 208.136256 407.159747 211.185469 409.705026 214.488783 412.335147 217.029794 414.541055 217.199195 415.728852 218.130899 415.728852 220.58721 414.201685 221.942416 413.777471 223.890524 415.559167 226.600936 417.59539 229.141947 419.801298 230.920655 420.904252 240.745898 420.225511 274.626045 420.649724 279.453966 440.757426 279.284565 460.525757 278.691663 488.099609 277.590558 489.966147 280.724472 489.287406 283.350183 486.657284 285.467692 486.233071 286.992299 490.644888 287.415801 494.123435 286.484097"></polygon>
                                <polygon id="MS" fill="#FFFFFF" opacity="0.200000003" points="505.068134 395.32407 507.274042 391.766655 508.801209 392.444258 514.570507 390.834951 516.352202 391.089052 517.624842 391.766655 522.036658 391.766655 522.376029 390.411449 520.933704 377.875794 518.558111 361.782724 519.406537 323.582858 519.236852 309.437897 519.406537 304.101773 515.334091 304.355874 498.704937 305.71108 487.675396 306.049882 487.505711 308.760294 485.130117 309.861398 482.924209 314.181117 483.348422 315.536323 483.433265 317.569132 480.972829 318.500836 478.003337 322.820555 478.682078 324.768663 476.136799 326.886173 475.288373 331.714094 474.779317 333.323401 476.136799 335.44091 474.86416 336.626715 476.136799 338.998325 476.391327 342.555741 475.373216 344.67325 475.20353 345.435553 475.542901 349.670572 477.239753 353.482088 477.154911 354.921995 479.106291 356.616002 478.512393 359.241713 477.748809 359.495814 478.257865 361.105121 470.961399 373.810177 470.282658 380.755607 470.706871 382.026113 491.238786 381.43321 498.195881 380.840307 499.807891 380.586206 500.316947 381.772011 499.468521 387.785738 502.268327 390.58085 504.134865 396.001673"></polygon>
                                <path d="M659.821078,298.088047 L649.046065,291.566119 L646.415943,290.888516 L632.332068,292.667224 L630.974586,290.126213 L628.598992,288.262804 L614.430274,288.686306 L608.15192,289.44861 L600.346399,293.260126 L594.577101,295.547036 L589.06233,296.563441 L577.693419,297.749246 L577.778261,294.276531 L579.220586,293.175426 L581.511337,292.582523 L582.105235,289.363909 L585.414097,287.2464 L588.72296,285.975894 L592.540878,282.841981 L596.273953,280.893872 L596.867852,278.183461 L600.346399,274.964847 L600.940297,275.81185 L603.061363,275.981251 L605.097586,272.932038 L606.539911,272.593236 L608.745819,272.847337 L610.272986,269.459323 L612.394052,267.426514 L612.818265,265.901907 L612.903107,262.937394 L616.636183,263.022095 L649.300592,258.278874 L698.085101,247.860729 L699.781953,251.926346 L702.836287,257.43187 L704.87251,259.464679 L705.381566,261.412788 L703.345343,261.582188 L704.024084,262.09039 L703.769556,265.647806 L701.563648,266.748911 L701.054592,268.527618 L699.951638,270.983929 L696.812461,272.339135 L694.776238,272.085034 L693.503599,271.915633 L692.146117,270.814528 L692.400645,271.915633 L692.400645,272.762637 L694.012655,272.762637 L694.691396,273.863742 L693.079386,279.199865 L696.642776,279.199865 L697.151832,280.555071 L699.103212,278.606962 L700.206166,278.183461 L698.594156,281.232674 L695.964035,285.298291 L694.861081,285.298291 L693.927812,284.87479 L691.637061,285.382992 L687.225245,287.415801 L681.710474,291.90492 L678.825825,295.885838 L677.213815,301.391362 L676.789602,303.42417 L672.801999,303.847672 L668.475025,305.118178 L659.821078,298.088047 Z M701.648491,275.896551 L703.854399,273.779041 L706.569363,271.576832 L707.842002,271.06863 L708.011687,269.374622 L707.502632,264.2079 L706.229992,262.259791 L705.720937,260.650484 L706.314835,260.481083 L708.605586,265.139604 L708.944956,268.86642 L708.775271,271.746232 L705.890622,273.016738 L703.515028,275.049547 L702.58176,276.065951 L701.648491,275.896551 Z" id="NC" fill="#26CFB1"></path>
                                <polygon id="NE" fill="#FFFFFF" opacity="0.200000003" points="391.379019 168.157682 390.530593 166.209573 390.10638 164.854367 387.645944 163.499161 383.573498 162.228656 381.70696 161.212251 379.501052 161.296952 376.361875 161.635753 372.798485 162.652158 367.707927 159.179442 365.84139 157.485435 356.763229 157.993637 321.55354 155.960828 291.349567 154.09742 287.701334 191.111481 315.784242 193.906594 314.596445 211.778371 333.007295 212.625375 367.453399 213.64178 404.614468 214.149982 408.432386 214.149982 406.565849 211.608971 404.35994 208.305656 404.444783 206.357548 403.256986 204.070638 401.644976 199.666219 401.305606 193.991294 400.117809 190.518579 399.693596 186.28356 397.742216 183.149647 396.89379 179.168729 394.518196 172.4774 393.66977 167.988281"></polygon>
                                <polygon id="NH" fill="#FFFFFF" opacity="0.200000003" points="740.421569 114.796449 741.354838 112.086037 739.064087 111.069633 738.639874 108.443922 735.161327 107.512218 734.906799 104.971206 724.980212 73.2255083 724.386314 73.2932686 723.877258 74.6484745 723.368202 74.2249727 722.519776 73.377969 721.247137 74.987276 721.077451 76.9269144 721.501664 84.0502154 723.113674 86.4218257 723.113674 90.0639416 719.804812 94.1295593 717.768589 94.8918626 717.768589 95.4847652 718.701858 97.0940722 718.701858 104.378304 718.023117 112.170738 717.853432 116.151655 718.701858 117.33746 718.532173 121.318378 718.10796 122.588883 718.956386 123.520587 723.28336 122.504183 734.991641 119.53967 736.433966 117.083359 739.827671 115.474052"></polygon>
                                <polygon id="NJ" fill="#26CFB1" points="691.212848 188.48577 691.297691 187.215265 693.588442 186.11416 695.030766 183.742549 696.473091 181.709741 699.272897 178.999329 699.272897 177.982924 694.097497 174.510209 693.249071 172.223299 690.95832 171.969198 690.873478 171.206895 690.279579 169.343487 692.146117 168.411783 692.315802 165.955472 691.212848 164.854367 691.382533 163.837963 692.994543 161.212251 692.994543 158.58654 695.115609 155.960828 699.866796 158.078338 705.296723 159.687645 707.417789 160.704049 707.502632 162.228656 707.078419 164.515566 707.417789 168.327082 705.636094 169.936389 704.702825 170.783393 705.127038 171.206895 707.417789 170.952794 708.351058 170.275191 709.70854 173.155003 709.878225 181.116838 710.387281 182.048542 709.454012 186.707062 706.823891 192.212586 704.53314 195.600601 703.854399 199.666219 702.072704 201.699028 701.393963 201.699028 701.139435 199.412118 701.818176 198.565114 701.648491 197.294608 698.254786 196.786406 694.18234 194.838298 691.467376 192.381987 690.61895 190.68798"></polygon>
                                <polygon id="NM" fill="#FFFFFF" opacity="0.200000003" points="221.608931 358.818212 207.440213 356.616002 206.422101 364.747237 193.016967 363.05323 198.107524 329.427184 204.046508 284.366587 207.779583 258.194173 236.626075 261.497488 268.357216 265.224304 295.506855 267.595914 295.252327 276.743554 294.064531 276.658854 287.786177 359.411114 263.690872 357.886507 231.365832 354.752594 231.959731 360.088717"></polygon>
                                <polygon id="NV" fill="#26CFB1" points="96.8054326 142.154668 129.639528 149.3542 151.69861 153.758619 142.705292 198.734515 138.12379 223.975225 135.323983 237.103782 133.542288 246.505523 131.33638 260.396383 129.894056 263.022095 128.536574 262.937394 127.518462 260.735185 125.142869 260.311683 124.039915 259.379979 122.512747 259.464679 121.749164 260.142282 120.221997 261.243387 119.967469 267.426514 119.712941 268.697019 119.288728 279.199865 118.355459 280.724472 104.186741 259.125878 68.4679966 206.526949 57.9220586 190.433879 65.1761028 162.821558 71.9719969 136.310343"></polygon>
                                <polygon id="OK" fill="#FFFFFF" opacity="0.200000003" points="341.830927 278.776363 340.30376 299.358553 339.540177 314.604619 339.709862 315.959825 343.103567 319.009038 344.545891 319.771342 345.309475 319.771342 346.073058 317.992634 347.345698 319.601941 348.70318 319.686641 348.957708 319.51724 349.127393 318.585536 351.502986 319.771342 351.163616 322.735854 354.387636 323.159356 356.508701 324.00636 360.072091 324.514562 362.023472 325.869768 364.144537 324.429862 367.114029 325.022764 368.980567 327.648476 369.998678 327.733176 369.998678 329.681285 371.780373 330.274187 373.901439 328.49548 375.428606 329.003682 377.719357 329.088382 378.313255 331.036491 382.046331 332.561097 383.488655 332.306996 385.100665 328.749581 386.203619 328.749581 387.136888 330.528288 390.700278 331.205891 393.584927 332.306996 396.130206 332.984599 397.487688 332.391696 398.081586 330.104787 401.899504 330.104787 403.511514 330.86709 405.802265 329.257783 406.990062 329.257783 407.499117 330.443588 410.553452 330.443588 412.250304 328.918981 414.201685 329.427184 415.644009 331.290592 418.189288 332.730498 421.073937 333.492801 422.685947 334.509206 422.431419 302.661867 421.243622 293.429527 421.15878 286.145295 419.88614 280.555071 419.377085 274.795446 419.461927 271.15333 408.771757 271.407431 369.489622 270.983929 331.56497 269.205221 296.355282 267.680615 296.015911 276.743554"></polygon>
                                <polygon id="OR" fill="#26CFB1" points="49.5820288 129.703714 73.5415855 135.802141 96.8902753 141.307665 111.313521 144.441578 118.779672 114.711749 119.797783 110.984933 121.834006 106.326412 121.240108 105.225308 119.119042 105.310008 118.016088 103.785401 118.525144 102.514896 118.864515 99.7197836 122.852118 94.8918626 124.464128 94.1295593 125.227711 93.4519563 125.82161 91.1650464 126.500351 90.2333423 129.809213 85.4054213 132.94839 82.0174066 133.118075 79.2561746 130.233426 77.1471354 129.215315 73.2932686 118.100931 70.0492445 105.12001 67.1101417 92.5633015 67.423533 91.6300326 66.3139582 87.3030589 67.872445 83.4851409 67.4658832 81.4489179 66.1276174 80.3459638 66.5849994 76.3753291 66.3393683 74.7124137 65.1281531 70.6060307 63.6289565 69.6727619 63.5696663 65.8972651 62.4939716 64.404035 63.7814172 59.0928868 63.5781363 54.5877435 60.3171721 54.765913 52.4569779 53.0266393 49.492465 49.5480917 48.9842628 48.9541934 46.8667536 46.9179704 46.4432517 41.9970983 48.2219595 40.045718 53.7274834 37.330754 62.1975203 34.6157901 67.7030443 30.373659 79.6457962 24.8588885 91.1650464 17.986636 101.837293 16.3746262 104.293604 15.6958852 111.577835 14.5929311 116.659857 16.8921662 119.62437"></polygon>
                                <polygon id="PA" fill="#26CFB1" points="617.314924 157.908937 618.417878 157.485435 623.253907 152.826915 623.847806 158.67124 652.270084 153.165716 683.577012 146.559088 685.528392 148.507196 688.158514 148.845997 689.855366 153.589218 691.891589 155.198525 694.267183 155.537327 694.352025 155.622027 692.146117 158.332439 692.146117 160.95815 690.534107 163.583862 690.364422 165.193169 691.467376 166.294273 691.297691 167.90358 689.261468 168.835285 690.109894 171.715097 690.279579 172.646801 692.655173 172.900902 693.418756 175.018411 698.424471 178.321726 698.424471 178.660527 695.79435 181.201538 694.52171 183.064946 693.079386 185.436557 690.788635 186.452961 689.600838 186.707062 687.819143 187.808167 686.461661 188.993972 667.456914 192.636088 634.622819 199.242717 625.035602 200.428522 621.72674 201.021425 617.399766 182.048542 613.751533 160.111147"></polygon>
                                <polygon id="RI" fill="#FFFFFF" opacity="0.200000003" points="733.549317 143.933376 732.870576 140.20656 731.513094 135.124538 736.349123 133.854032 737.621763 134.955137 740.506412 138.597253 742.882005 142.324069 740.506412 143.509874 739.403458 143.340474 738.470189 144.86508 736.433966 146.474387 734.058373 147.406091"></polygon>
                                <polygon id="SC" fill="#26CFB1" points="636.319671 345.435553 634.537976 344.58855 632.925966 339.845329 630.804901 337.89722 628.683835 337.473719 627.411196 333.577502 624.865917 328.071978 621.302527 326.547371 619.690517 325.022764 618.672406 322.820555 616.636183 321.126547 614.684802 320.025443 612.818265 317.569132 610.103301 315.536323 606.370225 314.096417 606.030855 312.910612 604.079474 310.539001 603.655261 309.268496 600.431242 304.694676 597.546593 304.779376 594.23773 302.661867 593.219619 301.645463 593.049934 300.459657 593.558989 299.104452 595.84974 298.003347 595.170999 296.309339 600.600927 294.022429 608.406448 290.210913 614.430274 289.44861 628.344465 289.025108 630.295845 290.634415 631.823012 293.598928 635.725773 292.921325 646.415943 291.650819 648.706694 292.328422 659.312022 298.596249 667.881127 305.62638 663.384468 310.2002 661.17856 315.366922 660.754347 320.703046 659.396865 321.380649 658.463596 323.667559 656.427373 324.175761 654.645678 327.224974 652.354927 329.511884 650.403547 332.391696 649.046065 333.069299 645.99173 335.949112 643.531294 336.118513 644.37972 338.828925 640.137589 343.318044 638.186209 344.67325"></polygon>
                                <polygon id="SD" fill="#FFFFFF" opacity="0.200000003" points="391.972917 148.507196 391.209334 151.217608 391.548704 153.758619 393.754613 155.452626 392.736501 160.026446 391.209334 163.499161 392.481973 166.294273 393.075872 167.225977 391.972917 167.310678 391.379019 165.955472 390.869963 164.261465 388.070157 162.736858 383.997711 161.466352 381.876645 160.365248 379.416209 160.449948 376.107347 160.788749 372.883327 161.805154 368.386668 158.58654 366.095917 156.553731 356.848072 157.231334 321.638383 155.198525 291.434409 153.335117 292.707049 132.329426 295.082642 103.5313 295.422013 99.2962818 343.697465 102.599596 391.972917 104.039502 391.972917 106.326412 390.869963 107.596918 389.173111 108.867423 389.088268 110.730832 390.021537 112.59424 393.500085 115.474052 393.924298 117.760962 393.924298 148.168395"></polygon>
                                <polygon id="TN" fill="#26CFB1" points="561.488478 299.697354 550.374094 300.713759 530.605763 302.577167 498.704937 304.864077 488.693507 305.202878 489.457091 304.694676 490.220675 300.883159 489.202563 297.833946 492.511425 295.885838 492.850796 293.768328 493.868907 290.126213 496.414186 282.079677 496.838399 277.336457 497.092927 277.167056 507.52857 276.997655 519.067166 276.320052 519.152009 273.016738 522.121501 272.932038 547.913658 270.136925 593.728674 265.732506 602.467465 264.462001 608.915504 264.2926 610.951727 262.683293 612.054681 262.937394 611.969838 265.732506 611.630468 267.087712 609.594245 268.95112 608.236763 272.000334 606.539911 271.661532 604.503688 272.423835 602.63715 275.218948 601.449353 275.049547 600.770612 274.033142 599.837343 274.371944 596.189111 277.759959 595.51037 280.38567 591.946979 282.249078 588.298747 285.298291 585.074727 286.568797 581.341652 288.940407 580.832596 291.989621 578.71153 292.413122 577.014678 293.853029 576.844993 297.918646"></polygon>
                                <polygon id="UT" fill="#FFFFFF" opacity="0.200000003" points="186.144714 254.213256 207.016 257.262469 208.62801 245.658519 214.566993 202.884833 216.518373 184.250752 189.199049 181.286239 191.065587 170.19049 192.592754 161.212251 163.152364 156.045529 152.547036 153.92802 143.553718 198.734515 138.972216 224.144625 136.17241 237.188482 134.730085 244.980916"></polygon>
                                <path d="M700.545537,219.740206 L700.375851,222.111816 L697.915415,225.33043 L697.576045,229.226647 L698.000258,232.10646 L696.473091,236.341478 L694.606553,237.950785 L693.333914,234.054568 L693.673284,229.480749 L695.030766,225.923333 L695.624664,223.128221 L695.539822,221.688315 L700.545537,219.740206 Z M649.385435,257.516571 L616.636183,262.259791 L612.563737,262.175091 L610.697199,261.92099 L608.576133,263.530297 L602.382622,263.614997 L593.643832,264.970203 L587.959376,265.478405 L591.437924,263.276196 L594.916471,261.328087 L594.916471,259.549379 L599.752501,253.366252 L603.231048,250.232339 L605.097586,248.11483 L608.15192,251.756945 L611.37594,252.519249 L613.666691,251.672245 L615.363543,250.40174 L617.399766,251.418144 L621.302527,250.317039 L622.744851,246.590223 L624.781074,247.183126 L627.496038,245.235017 L628.85352,245.573819 L631.229114,242.863407 L631.398799,240.576497 L630.720058,239.560092 L634.792504,230.666554 L636.319671,226.262134 L636.743884,222.281217 L637.337783,222.111816 L638.271051,223.551723 L639.543691,224.568127 L642.852553,224.398726 L644.294878,217.537997 L646.840156,217.029794 L647.518897,214.827585 L649.894491,212.964177 L650.82776,211.185469 L652.354927,207.543353 L652.439769,203.647136 L655.494104,204.832941 L661.093717,207.458653 L661.348245,203.054233 L664.232894,204.070638 L663.723838,206.526949 L671.020304,209.15266 L672.208101,210.677267 L671.52936,213.472379 L670.426406,214.573484 L670.002192,216.01339 L670.426406,218.046199 L672.123258,219.147304 L675.43212,220.333109 L677.892556,221.180112 L682.049845,221.942416 L683.916383,223.721123 L686.631346,224.059925 L687.39493,225.076329 L687.05556,229.057247 L688.243356,229.988951 L687.819143,231.598258 L688.837255,232.275861 L688.667569,233.461666 L686.376819,233.376965 L686.461661,234.732171 L688.413042,236.002677 L688.497884,237.188482 L690.025051,238.713089 L690.449264,240.830598 L688.243356,242.016403 L689.600838,243.286909 L694.52171,241.847002 L697.660887,247.098425 L649.385435,257.516571 Z" id="VA" fill="#26CFB1"></path>
                                <polygon id="VT" fill="#FFFFFF" opacity="0.200000003" points="698.848684 89.3863387 700.884907 94.8918626 701.563648 99.3809822 700.715222 102.684297 702.836287 106.411113 703.599871 108.359221 703.005973 110.561431 705.805779 111.831936 708.266215 120.979576 708.266215 125.468696 718.023117 123.689988 717.174691 122.758284 717.683746 121.148977 717.853432 117.506861 717.005005 116.321056 717.174691 112.340139 717.853432 104.463004 717.853432 97.2634729 716.920163 95.7388663 716.920163 94.3836604 719.295756 93.4519563 722.265248 89.7251401 722.265248 86.6759269 720.653238 84.3890169 720.39871 79.4848655 698.254786 85.2360206"></polygon>
                                <polygon id="WI" fill="#FFFFFF" opacity="0.200000003" points="451.702124 88.2005335 454.16256 88.6240353 456.622996 88.1158331 462.90135 85.4054213 465.361786 83.7961143 467.143481 83.1185114 468.755491 84.3890169 467.822222 85.320721 466.210212 87.9464324 465.701157 89.5557394 466.549583 90.0639416 468.07675 89.2169379 469.010019 89.0475372 471.30077 89.7251401 471.809825 90.6568442 472.743094 90.8262449 473.25215 89.8945409 476.645855 94.3836604 483.60295 95.4000648 490.560045 97.2634729 492.765953 98.195177 503.201596 100.397387 504.559078 102.345495 507.613412 103.361899 509.055737 112.001337 510.413219 113.187142 511.685858 113.949446 510.752589 115.897554 509.225422 117.25276 507.443727 121.233677 506.340773 123.266486 506.510458 124.791093 507.783098 125.045194 508.716366 123.435887 509.989006 122.758284 510.667747 120.810175 512.279757 119.285569 514.570507 115.897554 518.133898 110.561431 518.812639 110.137929 519.067166 110.984933 518.897481 112.933041 516.437045 118.692666 514.146294 123.520587 513.722081 126.230999 513.213025 128.433209 513.891766 129.534313 513.722081 131.821223 512.110071 133.854032 511.685858 135.378639 512.194914 138.427852 512.70397 141.307665 511.43133 143.509874 510.752589 145.966185 509.904163 148.591896 510.837432 150.624705 511.346488 155.791428 512.70397 159.602944 512.534284 162.143955 499.044307 163.668562 484.196848 164.515566 473.421835 164.515566 472.827937 163.24506 470.367501 162.906259 468.161593 161.805154 466.210212 158.67124 465.955685 155.622027 467.652537 153.165716 467.228324 151.979911 465.446629 150.116503 464.767888 147.321391 464.258832 141.561766 462.477137 139.444257 456.538153 135.63274 453.314134 131.05892 450.429485 130.211916 448.562947 127.840306 445.847983 127.840306 443.387547 125.045194 442.963334 119.53967 443.048176 116.321056 444.320816 113.695344 443.642075 110.984933 441.521009 108.613322 443.048176 104.039502 447.459993 100.820888 448.817475 99.2115814 448.647789 92.3508516 448.817475 89.9792412 450.853698 87.6076309"></polygon>
                                <polygon id="ND-path" fill="#FFFFFF" opacity="0.200000003" points="391.972917 102.176094 391.633547 96.9246715 390.10638 90.7415445 388.579213 79.2138244 388.154999 70.9978886 386.54299 68.3044169 385.185508 63.7983573 385.185508 54.9810489 385.694563 51.7200847 384.167396 47.0276843 359.902406 46.5279521 344.121678 46.0197499 321.638383 44.9186451 300.258042 43.0891171 299.494459 55.3029103 295.506855 98.4492781 343.697465 101.752592 391.972917 103.192499"></polygon>
                                <polygon id="WV" fill="#FFFFFF" opacity="0.200000003" points="636.234829 210.507866 641.155701 205.425844 643.361609 204.748241 644.719091 203.477735 645.99173 201.614327 646.924999 201.868428 649.55512 201.699028 653.457881 198.649814 654.73052 198.226312 655.833474 199.073316 658.039383 200.089721 660.584661 202.630732 660.245291 206.272847 655.663789 204.070638 651.591343 202.546031 651.506501 207.543353 649.300592 212.371274 646.840156 214.404083 646.161415 216.352191 643.616137 216.775693 642.173812 223.636423 639.798219 223.805824 638.86495 222.95882 637.846838 221.264813 635.980301 221.688315 635.556088 226.008033 634.02892 230.327752 629.786789 239.644793 630.550373 240.830598 630.46553 242.524605 628.598992 244.642115 627.24151 244.303313 624.611389 246.251422 622.235796 245.573819 620.708629 249.724137 617.484609 250.57114 615.363543 249.470036 613.242478 251.079343 611.291097 251.672245 608.576133 250.994642 605.352114 247.183126 602.382622 245.319717 600.261556 243.202208 597.80112 240.068295 597.376907 238.120186 595.001314 236.68028 594.492258 235.579175 594.322573 230.835954 594.577101 230.920655 596.613324 230.751254 598.140491 229.90425 598.140491 228.040842 599.582815 226.770337 599.667658 222.365918 600.431242 219.316704 601.364511 218.723802 601.703881 218.977903 602.552307 219.909607 603.994632 220.333109 604.927901 219.232004 604.079474 216.606292 604.079474 215.251087 606.709596 211.35487 607.727707 210.253765 609.42456 210.677267 611.630468 209.15266 614.260589 206.272847 616.296812 202.800132 616.466497 198.056912 616.890711 193.991294 616.890711 189.840976 615.957442 187.299965 616.721025 186.19886 617.399766 185.605958 621.047999 201.953129 624.696232 201.275526 634.198606 200.174421"></polygon>
                                <polygon id="WY" fill="#FFFFFF" opacity="0.200000003" points="291.858622 132.244725 290.585983 153.758619 286.852908 191.026781 284.562157 190.77268 213.888252 183.064946 190.21716 180.523935 191.914013 170.359891 197.768154 135.63274 200.992173 115.135251 202.095128 105.648809 242.989272 111.577835 293.131262 117.083359"></polygon>
                                <g id="DC" transform="translate(670.526256, 206.288759)" fill="#FFFFFF" opacity="0.200000003">
                                    <polygon id="DC1" points="2.10605731 3.79560514 1.17278846 2.44039924 0.324362229 1.76279629 1.25763108 0.407590389 3.12416878 1.67809592"></polygon>
                                </g>
                                <path d="M628.85352,372.20087 L624.441704,371.607967 L623.847806,372.28557 L625.120445,376.012386 L624.781074,380.416806 L621.302527,379.569802 L621.132842,377.198192 L617.654294,377.198192 L613.157635,377.791094 L585.668625,379.400401 L578.71153,379.1463 L577.269206,377.706394 L575.14814,374.148978 L570.142425,374.148978 L564.542812,374.57248 L534.508524,378.129896 L534.253996,380.501506 L535.611478,381.856712 L538.071914,383.550719 L538.326442,390.66555 L541.126248,390.157348 L546.216806,388.37864 L551.307363,387.955138 L555.040438,387.446936 L561.488478,388.971543 L568.36073,392.274857 L569.718212,393.545363 L572.178648,394.477067 L573.53613,396.086374 L573.790658,398.373284 L576.505622,397.272179 L579.814484,397.272179 L582.868819,395.662872 L586.007996,392.613659 L588.638117,392.783059 L589.06233,391.851355 L588.383589,391.004352 L588.553274,389.395045 L591.946979,388.717442 L594.152888,388.717442 L596.613324,389.987947 L600.176714,391.258453 L602.212937,394.392366 L604.503688,395.23937 L605.436956,398.119183 L608.321606,399.474389 L609.679088,401.676598 L611.291097,402.1848 L615.702914,403.285905 L616.805868,405.911617 L619.351147,409.04553 L619.351147,417.092065 L618.078507,421.072983 L618.333035,423.359892 L619.435989,427.42551 L620.963156,430.813525 L621.641897,430.390023 L622.914537,426.578507 L620.708629,425.731503 L620.454101,425.223301 L621.811583,424.715098 L625.629501,425.562102 L625.799186,426.917308 L623.084222,431.575828 L621.302527,433.608637 L624.356861,436.742551 L626.56277,439.368262 L629.023206,443.857382 L631.483642,447.160696 L633.265337,451.395715 L634.792504,451.649816 L636.149986,449.871108 L637.677153,450.802812 L639.883061,454.190827 L640.392117,457.24004 L643.022238,460.966856 L643.700979,459.865751 L647.009842,460.119853 L650.064176,462.067961 L652.948825,466.47238 L653.627566,469.352193 L653.882094,471.808503 L654.815363,472.655507 L655.918317,473.079009 L657.95454,472.232005 L659.227179,470.876799 L662.536042,470.707399 L665.166163,469.436893 L667.456914,466.726481 L667.032701,465.117174 L666.778173,463.084365 L667.287228,461.475058 L667.032701,459.865751 L669.068924,458.764647 L669.323451,455.884834 L668.814396,454.360227 L668.390183,444.196183 L667.287228,437.758955 L663.46931,430.813525 L660.414976,425.900904 L658.209068,421.411784 L655.748632,418.955473 L653.288196,412.687646 L653.882094,411.501841 L654.815363,410.400736 L653.457881,407.944425 L650.064176,404.810512 L645.99173,400.151991 L642.852553,394.815868 L638.355894,386.854034 L635.216717,378.638098 L633.265337,372.454971 L628.85352,372.20087 Z M643.870665,484.598259 L645.906888,484.090057 L647.009842,483.920656 L648.282481,481.972548 L650.233861,480.617342 L651.336815,481.040844 L652.77914,481.294945 L653.11851,482.226649 L650.149019,483.243053 L646.585629,484.513559 L644.634248,485.529963 L643.870665,484.598259 Z M655.324419,480.363241 L656.34253,481.294945 L658.633281,479.516237 L663.12994,475.958821 L666.269117,472.655507 L668.390183,467.065283 L669.238609,465.625376 L669.408294,462.745564 L668.814396,463.169066 L667.965969,465.540676 L666.69333,469.436893 L663.978366,473.926013 L660.245291,477.483428 L657.360642,479.092735 L655.324419,480.363241 Z" id="FL" fill="#26CFB1"></path>
                                <polygon id="TX-path" fill="#26CFB1" points="232.070944 355.636364 263.464638 358.690493 288.325049 360.302394 294.603788 277.416724 340.761003 279.452811 339.31859 299.219813 338.470112 314.490458 338.639807 316.187196 342.373111 319.66551 344.070068 320.598716 345.597329 320.598716 346.021568 319.580673 346.615503 320.344205 348.65185 320.513879 349.585176 320.004858 349.585176 319.835184 350.433654 320.259368 350.094263 323.398334 353.912415 323.992193 355.948763 324.755725 359.512371 325.349584 361.718415 326.876648 364.094154 325.264747 366.385045 325.773768 368.251697 328.403713 368.93048 328.48855 368.93048 330.270125 371.730458 331.203331 373.851653 329.421756 375.12437 329.84594 376.906175 329.930777 377.415262 331.712353 381.827348 333.409091 383.778848 332.984906 385.390957 329.59143 385.475805 329.59143 386.409131 331.203331 390.312131 331.966863 393.196956 333.069743 395.912087 333.918112 397.948434 332.900069 398.542369 330.94882 401.596891 330.94882 403.378695 331.797189 405.92413 330.100451 406.263521 330.100451 406.68776 331.288168 410.675608 331.288168 412.287716 329.761103 413.390738 330.100451 414.833151 331.882026 417.633129 333.493928 420.517955 334.342297 422.63915 335.530014 424.930042 337.226752 427.560324 336.208709 429.342128 336.887405 429.936063 353.854788 430.529998 361.914296 431.039085 365.392609 433.245128 369.125434 434.008758 372.943095 437.572367 377.948473 437.82691 380.578418 438.335997 381.257113 437.742063 387.789556 435.281476 391.861728 436.384497 394.067488 435.960258 396.103574 435.281476 402.211832 434.178454 404.75694 434.432998 408.32009 429.68152 409.677481 421.281585 413.495142 420.433107 415.107044 418.227064 416.718945 416.445259 417.991499 415.342238 418.670194 410.505912 423.166551 408.215021 424.948126 403.718086 427.662908 398.88176 429.698994 393.536348 432.583449 392.009087 433.856003 387.087913 436.910132 384.203087 437.419153 380.894022 442.085184 377.500109 442.339695 376.651631 443.951596 378.603131 445.563498 377.330414 450.229528 376.227392 454.047189 375.294066 457.355829 374.615284 461.173491 375.294066 463.209577 376.821327 469.148161 377.669805 474.323213 379.197066 476.61381 378.348588 477.886364 375.718305 479.498265 370.881979 476.189625 366.215349 475.256419 365.112328 475.680604 362.397197 475.171582 358.833589 472.541638 354.421502 471.608432 347.973068 468.723976 346.191263 465.415337 345.088242 459.900937 342.373111 458.289035 341.864025 456.337786 342.373111 455.828765 342.627655 452.94431 341.524633 452.435288 341.015546 451.586919 342.118568 447.854094 340.761003 445.902845 338.045873 444.799965 335.161047 441.067141 332.106525 435.467904 328.542917 433.262144 328.712612 431.650243 324.215678 421.215302 323.536895 417.652151 322.009634 416.04025 321.839939 414.767696 316.749069 410.271339 314.543026 407.641395 314.543026 406.708189 312.336983 404.926613 306.567331 403.993407 300.288592 403.484386 297.65831 401.533137 293.840158 403.060201 290.785636 404.332755 288.834136 407.047536 287.985658 410.186502 284.252354 415.361554 282.216006 417.397641 280.009963 416.549271 278.482702 415.616065 276.870593 415.107044 273.561528 413.155795 273.561528 412.646773 272.034268 411.034872 267.622181 409.253296 261.343442 402.636017 259.391942 398.648681 259.391942 391.776891 256.676812 386.262491 256.252573 383.971895 254.895008 383.123525 253.961682 381.34195 249.719291 379.560375 248.616269 378.202984 242.592074 371.500867 241.489052 368.786086 237.501204 366.834837 236.228487 363.102012 234.022444 360.641742 232.580031 360.217557"></polygon>
                                <polygon id="AL-path" fill="#26CFB1" points="525.389862 390.249827 525.898949 390.4195 527.001971 388.128904 528.274688 384.396079 530.226188 384.905101 532.85647 389.995316 532.85647 390.843685 530.565579 392.455586 532.85647 392.710097 537.268557 390.589174 537.014014 384.141568 534.892818 382.614504 533.195862 380.917765 533.535253 377.524289 542.444274 376.251735 564.250164 373.791464 569.934968 373.282443 574.686446 373.36728 574.262207 371.500867 572.98949 370.822172 572.225859 369.888966 573.074338 367.683206 572.734946 363.271686 571.377381 359.454025 572.056164 355.127342 573.498577 351.05517 573.328881 349.612942 571.80162 349.019084 571.377381 345.964955 569.08649 343.0805 567.389534 337.5661 566.201664 331.882026 564.674403 327.64018 561.450186 314.066273 558.480512 307.364157 557.80173 302.613289 557.886578 300.746877 550.250274 301.425573 530.395884 303.291985 520.044449 303.97068 519.874754 309.400243 520.044449 323.568008 519.450515 349.867453 519.195971 361.829459 521.57171 377.778799 522.929275 390.249827"></polygon>
                                <polygon id="CA-path" fill="#26CFB1" points="96.2295818 321.956107 79.514561 319.66551 71.0297788 318.392956 70.6055397 316.865892 70.6055397 308.891221 70.3509963 306.17644 68.1449529 302.613289 67.4661704 300.66204 64.1571053 297.09889 61.6965185 293.111554 59.4056273 292.941881 56.690497 292.263185 56.4359536 291.414816 57.7086709 290.905795 57.199584 288.191013 55.9268667 286.409438 51.8541712 285.730743 48.5451062 283.949167 47.6117802 281.997918 45.4057368 277.925746 42.94515 275.295802 40.4845632 275.295802 37.1754981 273.514226 33.3573462 271.987162 29.7937377 271.562977 27.75739 269.27238 28.1816291 267.660479 29.7088899 261.637058 30.3876724 260.025156 30.3876724 257.98907 29.0301073 257.140701 28.6058682 254.68043 27.3331509 252.47467 24.4483249 247.554129 23.3453033 244.924185 22.0725859 240.936849 20.7150208 236.440493 17.9998905 232.707668 17.5756514 230.247398 18.254434 226.938758 19.18776 226.938758 20.9695643 225.581367 21.9028903 222.527238 21.0544121 220.236641 18.7635209 219.812457 17.1514123 217.606697 15.3696081 214.467731 15.1999124 207.511103 15.7089993 205.899202 16.2180863 203.947953 16.6423254 201.911867 11.8059996 196.567141 11.8059996 194.785566 12.060543 194.361381 12.3150865 191.6466 11.2120648 188.253123 9.26056492 184.180951 6.96967375 180.363289 5.44241296 177.05465 6.29089118 173.915684 6.7999781 168.995142 8.32723889 166.365198 8.58178235 160.850798 7.64845632 157.796669 6.29089118 154.233518 4 150.670368 4.67878257 147.955586 5.95149989 144.392436 7.47876067 143.71374 7.73330414 142.780534 10.3635866 140.574774 14.7756733 130.564018 14.945369 124.286086 16.3792971 120.129077 49.2069192 130.139833 70.9279615 135.73907 64.1401358 162.293026 56.7838296 190.374046 67.5001095 206.662734 103.271951 259.516135 117.780928 281.65857 117.441537 284.288515 119.817276 288.700035 120.750602 293.281228 121.59908 294.553782 122.193015 295.062804 122.023319 296.25052 120.83545 297.09889 117.950624 298.45628 116.338515 300.237856 114.896102 303.546495 114.471863 307.533831 112.26582 309.654754 110.31432 310.58796 110.229472 315.847849 109.720385 317.45975 110.568864 318.901978 113.114298 319.156489 112.774907 320.513879 111.587037 322.210618 108.277972 322.719639"></polygon>
                                <polygon id="WA-path" fill="#26CFB1" points="55.3329319 52.0050312 53.381432 48.3570437 49.9026713 47.7631853 49.5632801 45.7270992 47.4420845 45.2180777 44.9814977 44.7938931 43.4542369 45.6422623 41.502737 43.1819917 41.7572805 40.721721 44.0481717 40.4672103 45.4057368 37.0737335 43.1996935 36.1405274 43.3693891 33.0015614 47.1026932 32.4925399 44.8118021 30.2019431 43.5390847 24.1785219 44.0481717 21.7182512 44.0481717 15.0161346 42.5209109 12.3013532 44.4724108 4.32668286 46.254215 4.75086745 48.2905627 7.2111381 50.5814539 9.41689799 53.2965842 11.0287994 57.1147362 12.8103747 59.7450186 13.3193963 62.2056054 14.59195 65.0904314 15.4403192 67.0419312 15.2706454 67.0419312 13.2345593 68.1449529 12.3013532 69.9267572 11.1984733 70.1813006 12.1316794 70.4358441 13.6587439 68.4843442 14.0829285 68.2298007 15.8645038 69.7570615 17.1370576 70.6903876 19.1731437 71.1994745 20.7850451 72.4721918 20.6153713 72.6418875 19.5124913 71.7934092 18.4096114 71.3691701 15.69483 72.0479527 14.1677654 71.5388658 12.8952117 71.5388658 10.6894518 73.0661266 7.63532269 72.1328005 5.4295628 70.0964528 1.3573907 70.3509963 0.67869535 71.5388658 2.20268248e-13 75.2721699 1.27255378 83.5024086 3.56315059 90.7993212 5.17505205 107.768885 10.0107564 127.283884 14.8464608 140.011058 17.8072693 135.938362 32.7046322 132.12021 50.3761624 129.235384 64.1621617 128.895993 71.9501908 128.895993 71.9501908 117.950624 68.7942575 104.968907 65.8504164 92.6659733 66.1218945 91.7326473 64.8238897 86.8963214 66.5969813 83.5872564 66.2406662 81.3812131 64.7220854 79.9388001 65.2735253 76.4176155 65.061433 74.958233 63.9415857 70.5800854 62.3975538 69.5788811 62.2618147 65.5061857 61.0825815 63.8771075 62.4823907 59.0832056 62.2702984 55.171721 59.4282616"></polygon>
                                <g id="OH-path">
                                    <use fill="black" fill-opacity="1" filter="url(#filter-2)" xlink:href="#path-1"></use>
                                    <use fill="#26CFB1" xlink:href="#path-1"></use>
                                </g>
                            </g>
                            <polygon id="NY-path" fill="#26CFB1" fill-rule="nonzero" points="715.72783 165.244275 716.152069 162.953678 715.982374 160.917592 713.436939 159.645038 707.921831 157.9483 702.830961 155.74254 702.321874 155.403192 700.030983 155.148681 698.334027 153.876128 696.552222 148.870749 693.752244 148.446565 691.715897 146.410479 659.134333 153.282269 632.322422 158.372484 631.898183 152.858085 633.255748 151.840042 634.358769 150.906836 635.207248 149.549445 636.734508 148.616239 638.346617 147.089174 638.770856 145.731783 640.55266 143.441187 641.485986 142.592817 641.316291 141.744448 640.213269 139.114504 638.686008 138.94483 637.0739 133.769778 639.534487 132.242713 643.267791 130.97016 646.661704 129.86728 649.376834 129.443095 654.722247 129.273421 656.334355 130.376301 657.69192 130.545975 659.473725 129.443095 661.679768 128.509889 666.091855 128.085704 667.873659 126.55864 669.40092 123.843858 670.758485 122.231957 672.540289 122.231957 674.152398 121.298751 674.322093 119.347502 673.049376 117.565926 672.794832 116.293373 673.728159 114.511797 673.728159 113.239244 672.200898 113.239244 670.673637 112.560548 669.994854 111.627342 669.825159 109.421582 674.746332 104.755552 675.255419 104.076856 676.528137 101.616586 678.988723 97.7989244 681.279615 94.6599584 683.061419 92.6238723 685.097767 91.0968078 687.728049 90.0787647 692.394679 88.9758848 695.10981 89.1455586 698.927961 87.8730049 705.2067 86.0065926 705.800635 90.1636017 707.836983 95.6780014 708.515765 99.9198473 707.667287 103.482998 709.87333 107.300659 710.552113 108.997398 709.788483 111.712179 712.927852 113.154407 715.218743 121.807772 715.218743 126.728314 714.709656 135.975538 715.388439 140.556731 715.982374 143.610861 717.255091 149.803956 717.255091 156.675746 716.321765 158.626995 718.103569 160.917592 718.527808 161.681124 716.9157 163.208189 717.170243 164.311069 718.273265 164.056558 719.545982 162.953678 721.497482 160.747918 722.430808 160.238897 723.788373 160.747918 725.739873 160.917592 732.442851 157.608952 734.903438 155.318355 736.006459 154.045802 739.570068 155.403192 736.685242 158.457321 733.376177 160.917592 727.351982 165.413949 725.145938 166.262318 720.224765 167.874219 716.830852 168.807425 715.982374 168.468078"></polygon>
                            <polygon id="CO-path" fill="#26CFB1" fill-rule="nonzero" points="322.712722 195.361381 292.167506 192.392089 225.052879 185.096114 223.186227 203.845073 217.24688 246.60288 215.634771 258.225538 244.48303 261.534178 276.300963 265.267002 305.743157 267.81211 317.876396 268.321131"></polygon>
                            <path d="M182.20339,412.880952 L182.20339,459.696429 L212.711864,498 M0,355 L124.576271,355 L182.20339,412.880952 L254.237288,412.880952 L300,458.845238 L300,498" id="frames" stroke="#FFFFFF" stroke-width="2" opacity="0.100000001"></path>
                            <path d="M197.901577,435.128557 L199.513685,432.074427 L201.465185,431.819917 L201.719728,432.498612 L199.937924,435.128557 L197.901577,435.128557 Z M206.556054,431.989591 L211.731771,434.19535 L213.513576,433.94084 L214.871141,430.6322 L214.362054,427.747745 L210.798445,427.32356 L207.404533,428.850625 L206.556054,431.989591 Z M232.604335,440.473282 L235.743705,445.139313 L237.780053,444.884802 L238.713379,444.460618 L239.986096,445.563498 L243.125465,445.393824 L243.973944,444.12127 L241.513357,442.594205 L239.901248,439.455239 L238.119444,436.40111 L233.19827,438.861381 L232.604335,440.473282 Z M249.743595,448.023768 L250.846617,446.411867 L254.834465,447.260236 L255.343552,446.836051 L260.519269,447.345073 L260.264725,448.447953 L258.058682,449.720507 L254.325378,449.465996 L249.743595,448.023768 Z M254.24053,452.435288 L255.852638,455.743928 L258.482921,454.810722 L258.737464,453.453331 L257.379899,451.671756 L254.24053,451.417245 L254.24053,452.435288 Z M260.179877,451.417245 L262.131377,448.956974 L266.119225,450.99306 L269.852529,451.926266 L273.585833,454.216863 L273.585833,455.828765 L270.531312,457.355829 L266.458616,458.204198 L264.422268,456.931645 L260.179877,451.417245 Z M274.264616,464.651804 L275.622181,463.548924 L278.507007,464.906315 L284.955441,467.960444 L287.840267,469.742019 L289.197832,471.778105 L290.809941,475.51093 L294.203854,477.71669 L293.94931,478.81957 L290.640245,481.534351 L287.076637,482.806905 L285.803919,482.297883 L283.173637,483.824948 L281.137289,486.539729 L279.185789,489 L277.658529,488.830326 L274.604007,486.624566 L274.349464,482.806905 L274.85855,480.770819 L273.500985,475.935115 L271.719181,474.40805 L271.549485,472.20229 L273.500985,471.353921 L275.28279,468.723976 L275.707029,467.875607 L274.349464,466.348543 L274.264616,464.651804 Z M41.5270418,283.470854 L42.6300635,284.743407 L42.4603679,285.846287 L39.7452376,285.76145 L39.2361506,284.743407 L38.7270637,283.470854 L41.5270418,283.470854 Z M43.1391504,280.470854 L44.1573243,279.961832 L47.2118459,281.743407 L49.8421283,282.76145 L49.0784979,283.270472 L45.260346,283.100798 L43.9027808,281.743407 L43.1391504,280.470854 Z M60.7026494,297.268563 L60.6178016,297.268563 L60.6178016,296.25052 L61.5511277,296.080847 L63.8420188,297.777585 L64.690497,299.30465 L64.1814101,300.577203 L62.9086928,300.068182 L62.2299102,299.219813 L60.7026494,297.268563 Z M59.5147799,304.649375 L61.0420407,307.364157 L62.0602146,308.976058 L60.7874973,309.145732 L59.6844756,308.127689 C59.6844756,308.127689 59.0905408,306.855135 59.0905408,306.515788 C59.0905408,306.17644 59.0905408,304.649375 59.0905408,304.649375 L59.5147799,304.649375 Z M322.712722,194.361381 L317.876396,267.321131 L305.743157,266.81211 L276.300963,264.267002 L244.48303,260.534178 L215.634771,257.225538 L217.24688,245.60288 L223.186227,202.845073 L225.052879,184.096114 L292.167506,191.392089 L322.712722,194.361381 Z M472.553974,150.33102 L474.335778,152.112595 L474.590322,152.706454 L472.893365,155.251561 L473.147909,158.645038 L475.353952,162.123352 L477.984235,163.480743 L480.020582,163.735253 L480.784213,165.262318 L480.953908,167.298404 L483.075104,168.146773 L483.838734,169.079979 L484.262974,170.43737 L487.487191,173.236988 L487.996278,174.84889 L487.402343,177.393997 L485.95993,180.532963 L485.450843,182.569049 L483.669039,183.92644 L482.311474,184.350625 L477.475148,185.623178 L476.117583,189.69535 L476.796365,191.222415 L478.238778,192.494969 L478.069083,195.464261 L476.456974,196.651978 L475.863039,198.179042 L475.863039,200.215128 L474.67517,200.554476 L473.232757,201.742193 L472.808518,203.184421 L473.147909,204.626648 L472.044887,205.475017 L470.093387,203.184421 L468.905518,200.808987 L461.863149,201.487682 L453.378367,201.996704 L411.633238,203.014747 L410.275673,199.366759 L409.936282,193.682686 L408.748413,190.119535 L408.154478,185.708015 L406.287826,182.569049 L405.439347,178.666551 L403.148456,172.049271 L402.21513,167.298404 L401.027261,165.686502 L399.924239,163.226232 L401.366652,160.002429 L402.384826,154.827377 L400.093935,152.960965 L399.839391,150.924879 L400.433326,148.888793 L401.960587,148.634282 L453.802606,148.12526 L471.790344,147.531402 L472.553974,150.33102 Z M734.733742,72.5355656 L736.006459,72.8749133 L736.006459,70.6691534 L736.685242,66.0031228 L738.891285,62.0157876 L740.164003,58.6223109 L738.551894,56.5862248 L738.551894,51.4960097 L739.230677,50.6476405 L739.909459,48.3570437 L739.739764,47.0844899 L739.570068,43.0123178 L741.097329,38.9401457 L743.557915,31.38966 L745.33972,27.8265094 L746.442741,27.8265094 L747.545763,27.9961832 L747.545763,28.9293893 L748.648785,30.8806384 L750.939676,31.38966 L751.618459,30.7109646 L751.618459,29.8625954 L755.012371,27.4023248 L756.539632,25.8752602 L757.812349,26.0449341 L762.903219,28.0810201 L764.515327,28.9293893 L772.236479,54.295628 L777.327348,54.295628 L778.006131,55.9075295 L778.175827,59.9797016 L780.636413,61.9309507 L781.315196,61.9309507 L781.484892,61.5067661 L781.060653,60.57356 L783.436392,60.1493754 L785.0485,61.9309507 L787,65.0699167 L787,66.6818182 L785.218196,70.6691534 L783.606087,71.1781749 L780.721261,73.8081194 L776.648566,78.4741499 C776.648566,78.4741499 776.139479,78.4741499 775.545544,78.4741499 C775.036457,78.4741499 774.697066,76.6925746 774.697066,76.6925746 L773.169805,76.8622484 L772.321327,78.1348022 L770.284979,79.407356 L769.436501,80.6799098 L770.794066,81.9524636 L770.369827,82.4614851 L769.945588,84.7520819 L768.333479,84.582408 L768.333479,83.2250173 L768.078936,82.1221374 L766.806219,82.3766482 L765.278958,79.6618668 L763.497153,80.7647467 L764.600175,82.0373005 L764.854719,82.9705066 L764.175936,84.0733865 L764.43048,86.703331 L764.600175,88.0607217 L763.24261,90.2664816 L760.782023,90.6906662 L760.52748,93.1509368 L756.030545,95.7808813 L754.927524,96.2050659 L753.569958,94.9325121 L750.939676,97.9866412 L751.788154,100.701423 L750.515437,101.804303 L750.345741,105.537127 L749.412415,110.881853 L747.545763,110.118321 L747.121524,107.488376 L743.727611,106.55517 L743.557915,104.434247 L733.63072,72.6797883 L734.733742,72.5355656 Z M765.703197,85.7701249 L766.975914,84.4975711 L768.163784,85.4307772 L768.672871,87.4668633 L767.230458,88.2303956 L765.703197,85.7701249 Z M771.388001,80.7647467 L772.57587,78.8983345 L774.272827,78.3044761 L774.951609,79.8315406 L774.187979,80.5102359 C774.187979,80.5102359 774.018283,81.9524636 774.018283,82.2069743 C774.018283,82.4614851 772.915262,82.3766482 772.915262,82.3766482 L771.388001,80.7647467 Z M306.506788,54.6095246 L302.009853,103.076856 L300.906832,115.972068 L250.761769,110.372831 L209.186337,104.34941 L207.998467,113.851145 L206.386359,112.408917 L206.046967,110.287994 L204.943946,108.676093 L202.143968,109.948647 L201.550033,112.06957 L199.598533,112.32408 L196.374316,110.96669 L192.895555,111.051527 L190.859207,111.645385 L188.144077,110.372831 L185.598642,110.542505 L183.816838,112.154407 L183.053208,111.645385 L182.459273,108.76093 L183.053208,106.046149 L180.762317,103.331367 L177.962339,101.210444 L175.841143,90.5209924 L175.756295,86.0246357 L174.39873,85.3459403 L173.889643,86.1943095 L170.071491,88.9090909 L169.053317,88.824254 L167.101817,86.4488203 L166.932122,84.0733865 L172.871469,69.523855 L172.362382,67.2587092 L169.392709,66.3085357 L169.053317,65.5365198 L166.762426,62.5672276 L162.859426,53.7357044 L160.144296,52.3952811 L158.617035,48.7812283 L159.720057,44.853279 L157.004927,38.4311242 L160.738231,20.3693442 L188.483468,26.2146079 L204.095467,29.0990632 L231.501314,33.5954198 L256.361725,36.9888966 L281.137289,39.9581888 L307.270418,42.5626822 L306.506788,54.6095246 Z M715.72783,164.244275 L716.152069,161.953678 L715.982374,159.917592 L713.436939,158.645038 L707.921831,156.9483 L702.830961,154.74254 L702.321874,154.403192 L700.030983,154.148681 L698.334027,152.876128 L696.552222,147.870749 L693.752244,147.446565 L691.715897,145.410479 L659.134333,152.282269 L632.322422,157.372484 L631.898183,151.858085 L633.255748,150.840042 L634.358769,149.906836 L635.207248,148.549445 L636.734508,147.616239 L638.346617,146.089174 L638.770856,144.731783 L640.55266,142.441187 L641.485986,141.592817 L641.316291,140.744448 L640.213269,138.114504 L638.686008,137.94483 L637.0739,132.769778 L639.534487,131.242713 L643.267791,129.97016 L646.661704,128.86728 L649.376834,128.443095 L654.722247,128.273421 L656.334355,129.376301 L657.69192,129.545975 L659.473725,128.443095 L661.679768,127.509889 L666.091855,127.085704 L667.873659,125.55864 L669.40092,122.843858 L670.758485,121.231957 L672.540289,121.231957 L674.152398,120.298751 L674.322093,118.347502 L673.049376,116.565926 L672.794832,115.293373 L673.728159,113.511797 L673.728159,112.239244 L672.200898,112.239244 L670.673637,111.560548 L669.994854,110.627342 L669.825159,108.421582 L674.746332,103.755552 L675.255419,103.076856 L676.528137,100.616586 L678.988723,96.7989244 L681.279615,93.6599584 L683.061419,91.6238723 L685.097767,90.0968078 L687.728049,89.0787647 L692.394679,87.9758848 L695.10981,88.1455586 L698.927961,86.8730049 L705.2067,85.0065926 L705.800635,89.1636017 L707.836983,94.6780014 L708.515765,98.9198473 L707.667287,102.482998 L709.87333,106.300659 L710.552113,107.997398 L709.788483,110.712179 L712.927852,112.154407 L715.218743,120.807772 L715.218743,125.728314 L714.709656,134.975538 L715.388439,139.556731 L715.982374,142.610861 L717.255091,148.803956 L717.255091,155.675746 L716.321765,157.626995 L718.103569,159.917592 L718.527808,160.681124 L716.9157,162.208189 L717.170243,163.311069 L718.273265,163.056558 L719.545982,161.953678 L721.497482,159.747918 L722.430808,159.238897 L723.788373,159.747918 L725.739873,159.917592 L732.442851,156.608952 L734.903438,154.318355 L736.006459,153.045802 L739.570068,154.403192 L736.685242,157.457321 L733.376177,159.917592 L727.351982,164.413949 L725.145938,165.262318 L720.224765,166.874219 L716.830852,167.807425 L715.982374,167.468078 L715.72783,164.244275 Z M388.045544,475.850278 L387.536457,469.826856 L385.245566,463.718598 L384.736479,457.780014 L386.009196,450.823387 L388.809175,444.969639 L391.778848,440.388446 L394.493979,437.334316 L395.003065,437.50399 L390.93037,443.103227 L387.197066,448.617627 L385.500109,454.216863 L385.245566,458.628383 L386.009196,463.803435 L388.21524,469.911693 L388.639479,474.323213 L388.809175,475.595767 L388.045544,475.850278 Z M63.3329319,52.0050312 L61.381432,48.3570437 L57.9026713,47.7631853 L57.5632801,45.7270992 L55.4420845,45.2180777 L52.9814977,44.7938931 L51.4542369,45.6422623 L49.502737,43.1819917 L49.7572805,40.721721 L52.0481717,40.4672103 L53.4057368,37.0737335 L51.1996935,36.1405274 L51.3693891,33.0015614 L55.1026932,32.4925399 L52.8118021,30.2019431 L51.5390847,24.1785219 L52.0481717,21.7182512 L52.0481717,15.0161346 L50.5209109,12.3013532 L52.4724108,4.32668286 L54.254215,4.75086745 L56.2905627,7.2111381 L58.5814539,9.41689799 L61.2965842,11.0287994 L65.1147362,12.8103747 L67.7450186,13.3193963 L70.2056054,14.59195 L73.0904314,15.4403192 L75.0419312,15.2706454 L75.0419312,13.2345593 L76.1449529,12.3013532 L77.9267572,11.1984733 L78.1813006,12.1316794 L78.4358441,13.6587439 L76.4843442,14.0829285 L76.2298007,15.8645038 L77.7570615,17.1370576 L78.6903876,19.1731437 L79.1994745,20.7850451 L80.4721918,20.6153713 L80.6418875,19.5124913 L79.7934092,18.4096114 L79.3691701,15.69483 L80.0479527,14.1677654 L79.5388658,12.8952117 L79.5388658,10.6894518 L81.0661266,7.63532269 L80.1328005,5.4295628 L78.0964528,1.3573907 L78.3509963,0.67869535 L79.5388658,0 L83.2721699,1.27255378 L91.5024086,3.56315059 L98.7993212,5.17505205 L115.768885,10.0107564 L135.283884,14.8464608 L148.011058,17.8072693 L143.938362,32.7046322 L140.12021,50.3761624 L137.235384,64.1621617 L136.895993,71.9501908 L136.895993,71.9501908 L125.950624,68.7942575 L112.968907,65.8504164 L100.665973,66.1218945 L99.7326473,64.8238897 L94.8963214,66.5969813 L91.5872564,66.2406662 L89.3812131,64.7220854 L87.9388001,65.2735253 L84.4176155,65.061433 L82.958233,63.9415857 L78.5800854,62.3975538 L77.5788811,62.2618147 L73.5061857,61.0825815 L71.8771075,62.4823907 L67.0832056,62.2702984 L63.171721,59.4282616 L63.3329319,52.0050312 Z M71.4783228,5.00537821 L73.1752792,4.83570437 L73.5995183,6.02342124 L74.8722356,4.66603053 L76.8237355,4.66603053 L77.5025181,5.93858432 L76.2298007,7.38081194 L76.7388877,8.05950729 L76.1449529,9.75624566 L74.9570834,10.0955933 C74.9570834,10.0955933 74.193453,10.1804303 74.193453,9.9259195 C74.193453,9.67140874 75.4661704,7.72015961 75.4661704,7.72015961 L74.0237574,7.2111381 L73.7692139,8.48369188 L73.1752792,8.99271339 L71.9025619,7.04146426 L71.4783228,5.00537821 Z" id="Combined-Shape" fill="#FFFFFF" fill-rule="nonzero" opacity="0.198451451"></path>
                        </g>
                    </g>
                </g>
            </g>
        </g>
    </g>
</svg>