<?xml version="1.0" encoding="iso-8859-1"?>
<!-- Generator: Adobe Illustrator 22.1.0, SVG Export Plug-In . SVG Version: 6.00 Build 0)  -->
<svg version="1.1" id="Layer_1" xmlns="http://www.w3.org/2000/svg" xmlns:xlink="http://www.w3.org/1999/xlink" x="0px" y="0px"
	 viewBox="0 0 841.89 595.28" style="enable-background:new 0 0 841.89 595.28;" xml:space="preserve">
<path style="fill:#2E458A;" d="M262.262,349.803c-22.974-0.019-37.029-10.169-37.017-25.491l18.204,0.015
	c-0.006,6.795,6.142,11.64,18.824,11.65c10.041,0.008,16.826-4.133,16.831-10.701c0.005-5.76-3.76-8.527-12.546-10.032
	l-14.185-2.547c-16.196-2.777-25.099-10.732-25.089-23.175c0.011-14.056,12.697-24.875,34.294-24.857
	c17.703,0.014,34.77,6.941,34.755,25.259l-17.703-0.014c0.007-8.294-7.396-11.756-17.314-11.764
	c-9.545-0.008-15.572,3.904-15.576,9.894c-0.004,5.415,3.632,8.414,13.298,10.15l14.312,2.43
	c16.692,3.01,24.47,11.194,24.459,24.212C297.798,340.846,282.222,349.82,262.262,349.803z"/>
<path style="fill:#2E458A;" d="M307.35,331.06l0.022-26.873l-11.04-0.009l0.012-14.254l5.892,0.005
	c4.017,0.003,5.15-1.841,5.153-5.873l0.009-11.488l17.575,0.014l-0.014,17.366l14.944,0.012l-0.012,14.254l-14.944-0.012
	l-0.019,23.301c-0.004,5.185,1.504,7.144,7.277,7.149l7.661,0.006l-0.011,14.171l-13.311-0.011
	C313.615,348.807,307.341,341.889,307.35,331.06z"/>
<path style="fill:#2E458A;" d="M406.011,323.306l-47.202-0.038c0.244,8.871,7.016,13.831,15.429,13.838
	c6.402,0.005,11.553-2.642,13.564-7.825l17.703,0.014c-2.897,12.44-15.335,20.841-31.778,20.828
	c-19.586-0.016-32.631-12.469-32.616-31.247c0.015-18.663,13.081-31.095,32.539-31.079c19.463,0.016,32.381,11.891,32.366,30.209
	L406.011,323.306z M358.94,312.669l29.504,0.024c-0.746-8.294-7.145-12.331-14.806-12.337
	C366.105,300.349,359.699,304.376,358.94,312.669z"/>
<path style="fill:#2E458A;" d="M475.109,337.188l-0.01,11.75l-9.545-0.008c-5.773-0.005-10.541-1.852-11.919-7.038
	c-3.643,5.067-11.179,8.172-20.846,8.164c-14.437-0.012-23.726-6.932-23.716-18.452c0.009-10.714,7.799-17.966,24.498-17.953
	l17.452,0.014l0.002-2.651c0.005-6.68-4.638-10.371-11.921-10.377c-7.278-0.006-12.178,3.562-12.433,8.861l-15.947-0.013
	c0.011-13.48,12.07-21.649,29.148-21.635c14.187,0.011,28.87,5.898,28.856,23.526l-0.018,22.349
	c-0.002,2.994,1.63,3.458,3.764,3.459L475.109,337.188z M451.014,324.151l-14.314-0.012c-7.533-0.006-9.542,3.216-9.545,6.443
	c-0.004,4.954,4.386,6.801,10.164,6.806c8.664,0.007,13.688-3.906,13.694-11.049L451.014,324.151z"/>
<path style="fill:#2E458A;" d="M543.904,272.729l-0.062,76.264l-15.799-0.013l-1.646-8.18c-3.269,5.18-11.057,9.322-21.098,9.314
	c-18.706-0.015-30.876-12.007-30.861-31.13c0.016-19.931,13.081-31.095,30.911-31.08c9.79,0.008,17.572,3.586,20.956,8.773
	l0.019-23.962L543.904,272.729z M525.914,319.027c0.008-10.369-7.141-16.71-16.558-16.718c-9.795-0.008-16.828,6.437-16.836,16.691
	c-0.009,10.482,7.013,16.71,16.809,16.718C518.745,335.725,525.905,329.509,525.914,319.027z"/>
<path style="fill:#2E458A;" d="M579.489,334.506l15.82-44.341l17.953,0.015l-26.888,68.409
	c-4.529,11.634-12.612,21.707-29.688,21.693l-27.432-0.022l0.012-14.284l27.431,0.022c6.333,0.005,13.8-2.929,12.732-13.758
	c-0.136-1.376-0.372-2.651-1.122-4.495l-24.332-57.621l18.833,0.015L579.489,334.506z"/>
<g>
	<path style="fill:#2E458A;" d="M616.847,342.088l-2.977-0.002l0.001-1.611l8.111,0.007l-0.001,1.611L619,342.09l-0.006,6.931
		l-2.154-0.002L616.847,342.088z"/>
	<path style="fill:#2E458A;" d="M631.62,349.031l-0.011-5.121l-2.742,4.217l-0.969-0.001l-2.723-4.113l-0.004,5.013l-2.021-0.002
		l0.007-8.542l1.783,0.001l3.477,5.314l3.437-5.308l1.768,0.001l0.02,8.542L631.62,349.031z"/>
</g>
<polygon style="fill:#47D7AC;" points="543.917,256.596 543.904,272.729 578.279,254.422 613.039,272.785 613.289,257.333 
	577.724,237.613 "/>
<g>
	<path style="fill:#2E458A;" d="M329.038,380.08l-3.474-0.003l0.012-14.206l3.474,0.003L329.038,380.08z"/>
	<path style="fill:#2E458A;" d="M340.748,365.883l3.474,0.003l4.95,8.511l0.007-8.507l3.454,0.003l-0.012,14.206l-3.454-0.003
		l-4.95-8.221l-0.007,8.217l-3.474-0.003L340.748,365.883z"/>
	<path style="fill:#2E458A;" d="M369.744,380.287c-3.786-0.003-6.089-1.8-6.086-4.512l3.494,0.003
		c-0.001,0.917,0.781,1.641,2.575,1.642c1.404,0.001,2.167-0.603,2.167-1.424c0.001-0.74-0.41-1.112-1.619-1.346l-2.185-0.432
		c-2.576-0.511-4.097-1.857-4.095-4.063c0.002-2.419,1.956-4.449,5.604-4.446c2.675,0.002,5.698,1,5.696,4.455l-3.376-0.003
		c0.001-1.288-1.112-1.68-2.342-1.681c-1.365-0.001-2.009,0.584-2.01,1.306c-0.001,0.664,0.41,1.094,1.872,1.388l2.185,0.43
		c2.672,0.531,3.9,1.936,3.898,4.259C375.521,378.731,372.985,380.29,369.744,380.287z"/>
	<path style="fill:#2E458A;" d="M390.011,374.86c-0.001,1.66,1.131,2.479,2.516,2.48c1.387,0.001,2.518-0.817,2.52-2.476
		l0.007-8.937l3.533,0.003l-0.007,8.487c-0.003,3.631-2.21,5.911-6.056,5.908c-3.882-0.003-6.066-2.287-6.063-5.918l0.007-8.487
		l3.55,0.003L390.011,374.86z"/>
	<path style="fill:#2E458A;" d="M410.103,365.939l6.774,0.005c2.653,0.002,4.896,1.799,4.894,4.725
		c-0.002,2.225-1.117,3.903-2.639,4.468l2.418,5.018l-3.904-0.003l-2.064-4.548l-2.011-0.002l-0.004,4.546l-3.474-0.003
		L410.103,365.939z M416.168,372.735c1.288,0.001,1.953-0.702,1.954-1.931c0.001-1.229-0.662-1.854-1.951-1.855l-2.596-0.002
		l-0.003,3.786L416.168,372.735z"/>
	<path style="fill:#2E458A;" d="M440.955,377.515l-4.703-0.004l-0.959,2.655l-3.531-0.003l5.337-14.202l3.3,0.003l5.297,14.211
		l-3.826-0.003L440.955,377.515z M440.059,374.96l-1.403-4.08l-1.486,4.078L440.059,374.96z"/>
	<path style="fill:#2E458A;" d="M456.385,365.977l3.474,0.003l4.95,8.511l0.007-8.507l3.454,0.003l-0.012,14.206l-3.454-0.003
		l-4.95-8.221l-0.007,8.217l-3.474-0.003L456.385,365.977z"/>
	<path style="fill:#2E458A;" d="M489.326,375.233l3.806,0.003c-0.627,3.083-3.225,5.148-6.834,5.145
		c-4.177-0.003-6.926-2.796-6.923-7.148c0.003-4.254,2.642-7.433,7.109-7.429c3.454,0.003,6.01,1.918,6.652,5.139l-3.806-0.003
		c-0.407-1.308-1.54-1.973-2.924-1.974c-2.11-0.002-3.436,1.617-3.438,4.116c-0.002,2.518,1.265,4.139,3.372,4.141
		C487.685,377.223,488.917,376.561,489.326,375.233z"/>
	<path style="fill:#2E458A;" d="M514.133,377.225l-0.002,3.005l-10.09-0.008l0.012-14.206l9.916,0.008l-0.002,3.005l-6.442-0.005
		l-0.002,2.616l4.762,0.004l-0.002,2.926l-4.763-0.004l-0.002,2.655L514.133,377.225z"/>
</g>
</svg>
