<?xml version="1.0" encoding="UTF-8"?>
<svg width="409px" height="144px" viewBox="0 0 409 144" version="1.1" xmlns="http://www.w3.org/2000/svg" xmlns:xlink="http://www.w3.org/1999/xlink">
    <!-- Generator: Sketch 52.2 (67145) - http://www.bohemiancoding.com/sketch -->
    <title>steady_color@svg</title>
    <desc>Created with Sketch.</desc>
    <g id="Design" stroke="none" stroke-width="1" fill="none" fill-rule="evenodd">
        <g id="steady_color">
            <path d="M37.262,112.803 C14.288,112.784 0.233,102.634 0.245,87.312 L18.449,87.327 C18.443,94.122 24.591,98.967 37.273,98.977 C47.314,98.985 54.099,94.844 54.104,88.276 C54.109,82.516 50.344,79.749 41.558,78.244 L27.373,75.697 C11.177,72.92 2.274,64.965 2.284,52.522 C2.295,38.466 14.981,27.647 36.578,27.665 C54.281,27.679 71.348,34.606 71.333,52.924 L53.63,52.91 C53.637,44.616 46.234,41.154 36.316,41.146 C26.771,41.138 20.744,45.05 20.74,51.04 C20.736,56.455 24.372,59.454 34.038,61.19 L48.35,63.62 C65.042,66.63 72.82,74.814 72.809,87.832 C72.798,103.846 57.222,112.82 37.262,112.803 Z" id="Path" fill="#2E458A"></path>
            <path d="M82.35,94.06 L82.372,67.187 L71.332,67.178 L71.344,52.924 L77.236,52.929 C81.253,52.932 82.386,51.088 82.389,47.056 L82.398,35.568 L99.973,35.582 L99.959,52.948 L114.903,52.96 L114.891,67.214 L99.947,67.202 L99.928,90.503 C99.924,95.688 101.432,97.647 107.205,97.652 L114.866,97.658 L114.855,111.829 L101.544,111.818 C88.615,111.807 82.341,104.889 82.35,94.06 Z" id="Path" fill="#2E458A"></path>
            <path d="M181.011,86.306 L133.809,86.268 C134.053,95.139 140.825,100.099 149.238,100.106 C155.64,100.111 160.791,97.464 162.802,92.281 L180.505,92.295 C177.608,104.735 165.17,113.136 148.727,113.123 C129.141,113.107 116.096,100.654 116.111,81.876 C116.126,63.213 129.192,50.781 148.65,50.797 C168.113,50.813 181.031,62.688 181.016,81.006 L181.011,86.306 Z M133.94,75.669 L163.444,75.693 C162.698,67.399 156.299,63.362 148.638,63.356 C141.105,63.349 134.699,67.376 133.94,75.669 Z" id="Shape" fill="#2E458A" fill-rule="nonzero"></path>
            <path d="M250.109,100.188 L250.099,111.938 L240.554,111.93 C234.781,111.925 230.013,110.078 228.635,104.892 C224.992,109.959 217.456,113.064 207.789,113.056 C193.352,113.044 184.063,106.124 184.073,94.604 C184.082,83.89 191.872,76.638 208.571,76.651 L226.023,76.665 L226.025,74.014 C226.03,67.334 221.387,63.643 214.104,63.637 C206.826,63.631 201.926,67.199 201.671,72.498 L185.724,72.485 C185.735,59.005 197.794,50.836 214.872,50.85 C229.059,50.861 243.742,56.748 243.728,74.376 L243.71,96.725 C243.708,99.719 245.34,100.183 247.474,100.184 L250.109,100.188 Z M226.014,87.151 L211.7,87.139 C204.167,87.133 202.158,90.355 202.155,93.582 C202.151,98.536 206.541,100.383 212.319,100.388 C220.983,100.395 226.007,96.482 226.013,89.339 L226.014,87.151 Z" id="Shape" fill="#2E458A" fill-rule="nonzero"></path>
            <path d="M318.904,35.729 L318.842,111.993 L303.043,111.98 L301.397,103.8 C298.128,108.98 290.34,113.122 280.299,113.114 C261.593,113.099 249.423,101.107 249.438,81.984 C249.454,62.053 262.519,50.889 280.349,50.904 C290.139,50.912 297.921,54.49 301.305,59.677 L301.324,35.715 L318.904,35.729 Z M300.914,82.027 C300.922,71.658 293.773,65.317 284.356,65.309 C274.561,65.301 267.528,71.746 267.52,82 C267.511,92.482 274.533,98.71 284.329,98.718 C293.745,98.725 300.905,92.509 300.914,82.027 Z" id="Shape" fill="#2E458A" fill-rule="nonzero"></path>
            <path d="M354.489,97.506 L370.309,53.165 L388.262,53.18 L361.374,121.589 C356.845,133.223 348.762,143.296 331.686,143.282 L304.254,143.26 L304.266,128.976 L331.697,128.998 C338.03,129.003 345.497,126.069 344.429,115.24 C344.293,113.864 344.057,112.589 343.307,110.745 L318.975,53.124 L337.808,53.139 L354.489,97.506 Z" id="Path" fill="#2E458A"></path>
            <g id="Group" transform="translate(388.000000, 103.000000)" fill="#2E458A">
                <polygon id="Path" points="3.847 2.088 0.87 2.086 0.871 0.475 8.982 0.482 8.981 2.093 6 2.09 5.994 9.021 3.84 9.019"></polygon>
                <polygon id="Path" points="18.62 9.031 18.609 3.91 15.867 8.127 14.898 8.126 12.175 4.013 12.171 9.026 10.15 9.024 10.157 0.482 11.94 0.483 15.417 5.797 18.854 0.489 20.622 0.49 20.642 9.032"></polygon>
            </g>
            <polygon id="Path" fill="#47D7AC" points="318.917 19.596 318.904 35.729 353.279 17.422 388.039 35.785 388.289 20.333 352.724 0.613"></polygon>
            <g id="Group" transform="translate(100.000000, 128.000000)" fill="#2E458A">
                <polygon id="Path" points="4.038 15.08 0.564 15.077 0.576 0.871 4.05 0.874"></polygon>
                <polygon id="Path" points="15.748 0.883 19.222 0.886 24.172 9.397 24.179 0.89 27.633 0.893 27.621 15.099 24.167 15.096 19.217 6.875 19.21 15.092 15.736 15.089"></polygon>
                <path d="M44.744,15.287 C40.958,15.284 38.655,13.487 38.658,10.775 L42.152,10.778 C42.151,11.695 42.933,12.419 44.727,12.42 C46.131,12.421 46.894,11.817 46.894,10.996 C46.895,10.256 46.484,9.884 45.275,9.65 L43.09,9.218 C40.514,8.707 38.993,7.361 38.995,5.155 C38.997,2.736 40.951,0.706 44.599,0.709 C47.274,0.711 50.297,1.709 50.295,5.164 L46.919,5.161 C46.92,3.873 45.807,3.481 44.577,3.48 C43.212,3.479 42.568,4.064 42.567,4.786 C42.566,5.45 42.977,5.88 44.439,6.174 L46.624,6.604 C49.296,7.135 50.524,8.54 50.522,10.863 C50.521,13.731 47.985,15.29 44.744,15.287 Z" id="Path"></path>
                <path d="M65.011,9.86 C65.01,11.52 66.142,12.339 67.527,12.34 C68.914,12.341 70.045,11.523 70.047,9.864 L70.054,0.927 L73.587,0.93 L73.58,9.417 C73.577,13.048 71.37,15.328 67.524,15.325 C63.642,15.322 61.458,13.038 61.461,9.407 L61.468,0.92 L65.018,0.923 L65.011,9.86 Z" id="Path"></path>
                <path d="M85.103,0.939 L91.877,0.944 C94.53,0.946 96.773,2.743 96.771,5.669 C96.769,7.894 95.654,9.572 94.132,10.137 L96.55,15.155 L92.646,15.152 L90.582,10.604 L88.571,10.602 L88.567,15.148 L85.093,15.145 L85.103,0.939 Z M91.168,7.735 C92.456,7.736 93.121,7.033 93.122,5.804 C93.123,4.575 92.46,3.95 91.171,3.949 L88.575,3.947 L88.572,7.733 L91.168,7.735 Z" id="Shape" fill-rule="nonzero"></path>
                <path d="M115.955,12.515 L111.252,12.511 L110.293,15.166 L106.762,15.163 L112.099,0.961 L115.399,0.964 L120.696,15.175 L116.87,15.172 L115.955,12.515 Z M115.059,9.96 L113.656,5.88 L112.17,9.958 L115.059,9.96 Z" id="Shape" fill-rule="nonzero"></path>
                <polygon id="Path" points="131.385 0.977 134.859 0.98 139.809 9.491 139.816 0.984 143.27 0.987 143.258 15.193 139.804 15.19 134.854 6.969 134.847 15.186 131.373 15.183"></polygon>
                <path d="M164.326,10.233 L168.132,10.236 C167.505,13.319 164.907,15.384 161.298,15.381 C157.121,15.378 154.372,12.585 154.375,8.233 C154.378,3.979 157.017,0.8 161.484,0.804 C164.938,0.807 167.494,2.722 168.136,5.943 L164.33,5.94 C163.923,4.632 162.79,3.967 161.406,3.966 C159.296,3.964 157.97,5.583 157.968,8.082 C157.966,10.6 159.233,12.221 161.34,12.223 C162.685,12.223 163.917,11.561 164.326,10.233 Z" id="Path"></path>
                <polygon id="Path" points="189.133 12.225 189.131 15.23 179.041 15.222 179.053 1.016 188.969 1.024 188.967 4.029 182.525 4.024 182.523 6.64 187.285 6.644 187.283 9.57 182.52 9.566 182.518 12.221"></polygon>
            </g>
        </g>
    </g>
</svg>