<?xml version="1.0" encoding="UTF-8"?>
<svg width="18px" height="15px" viewBox="0 0 18 15" version="1.1" xmlns="http://www.w3.org/2000/svg" xmlns:xlink="http://www.w3.org/1999/xlink">
    <!-- Generator: sketchtool 52.2 (67145) - http://www.bohemiancoding.com/sketch -->
    <title>D62AC87B-A0CA-4727-86A7-860CE2E097B0@svg</title>
    <desc>Created with sketchtool.</desc>
    <g id="Design" stroke="none" stroke-width="1" fill="none" fill-rule="evenodd">
        <g id="Landlords-UI" transform="translate(-1489.000000, -6483.000000)" fill="#1DA1F2" fill-rule="nonzero">
            <g id="Bottom" transform="translate(0.000000, 5460.000000)">
                <g id="Footer" transform="translate(0.000000, 318.000000)">
                    <g id="Group">
                        <g transform="translate(0.000000, 32.000000)">
                            <g transform="translate(0.000000, 611.000000)">
                                <g id="Group-8" transform="translate(1411.000000, 60.000000)">
                                    <g id="twitter" transform="translate(78.000000, 2.000000)">
                                        <path d="M16.1497266,3.73975962 C16.1611523,3.90375 16.1611523,4.06777644 16.1611523,4.23176683 C16.1611523,9.2336899 12.44925,14.9970793 5.66497266,14.9970793 C3.57486328,14.9970793 1.63325391,14.3762019 0,13.2985457 C0.296964844,13.3336659 0.58246875,13.3453846 0.890859375,13.3453846 C2.61544922,13.3453846 4.20303516,12.7479808 5.47080469,11.7288462 C3.84897656,11.6936899 2.48983594,10.6042788 2.02155469,9.10485577 C2.25,9.13997596 2.47841016,9.16341346 2.71828125,9.16341346 C3.04948828,9.16341346 3.38073047,9.11653846 3.68908594,9.03457933 C1.99873828,8.683125 0.730933594,7.16030048 0.730933594,5.32117788 L0.730933594,5.27433894 C1.22203125,5.55548077 1.79314453,5.7311899 2.39842969,5.75459135 C1.40477344,5.07515625 0.753785156,3.91546875 0.753785156,2.60347356 C0.753785156,1.90063702 0.936492188,1.25635817 1.25630859,0.694074519 C3.07230469,2.99004808 5.80201172,4.4894351 8.86289063,4.65346154 C8.80579688,4.37231971 8.77151953,4.07949519 8.77151953,3.78663462 C8.77151953,1.70149038 10.4161992,0.00295673077 12.4606055,0.00295673077 C13.5227813,0.00295673077 14.4821602,0.459807692 15.1560352,1.19780048 C15.9897656,1.0338101 16.7892539,0.717512019 17.4974063,0.284098558 C17.2232578,1.16268029 16.6407891,1.90067308 15.8755781,2.36920673 C16.6179727,2.2872476 17.3375156,2.07634615 17.9999297,1.78352163 C17.4974766,2.53319712 16.8692695,3.2008774 16.1497266,3.73975962 Z" id="Shape"></path>
                                    </g>
                                </g>
                            </g>
                        </g>
                    </g>
                </g>
            </g>
        </g>
    </g>
</svg>