<?xml version="1.0" encoding="UTF-8"?>
<svg width="56px" height="44px" viewBox="0 0 56 44" version="1.1" xmlns="http://www.w3.org/2000/svg" xmlns:xlink="http://www.w3.org/1999/xlink">
    <!-- Generator: sketchtool 52.2 (67145) - http://www.bohemiancoding.com/sketch -->
    <title>B026895A-037C-4CC6-958D-46F8487714D1@svg</title>
    <desc>Created with sketchtool.</desc>
    <g id="Additional" stroke="none" stroke-width="1" fill="none" fill-rule="evenodd">
        <g id="Partners-UI-—-insurance-agent-or-broker" transform="translate(-396.000000, -661.000000)">
            <g id="2" transform="translate(215.000000, 124.000000)">
                <g id="Group-11-Copy" transform="translate(0.000000, 469.000000)">
                    <g id="add-user" transform="translate(181.000000, 61.000000)">
                        <polygon id="Shape" points="0 0 58 0 58 58 0 58"></polygon>
                        <path d="M43.5,19.3333333 L38.6666667,19.3333333 C37.3319786,19.3333333 36.25,18.2513548 36.25,16.9166667 C36.25,15.5819785 37.3319786,14.5 38.6666667,14.5 L43.5,14.5 L43.5,9.66666667 C43.5,8.33197852 44.5819786,7.25 45.9166667,7.25 C47.2513547,7.25 48.3333333,8.33197852 48.3333333,9.66666667 L48.3333333,14.5 L53.1666667,14.5 C54.5013547,14.5 55.5833333,15.5819785 55.5833333,16.9166667 C55.5833333,18.2513548 54.5013547,19.3333333 53.1666667,19.3333333 L48.3333333,19.3333333 L48.3333333,24.1666667 C48.3333333,25.5013547 47.2513547,26.5833333 45.9166667,26.5833333 C44.5819786,26.5833333 43.5,25.5013547 43.5,24.1666667 L43.5,19.3333333 Z M21.75,26.5833333 C16.4112474,26.5833333 12.0833333,22.2554192 12.0833333,16.9166667 C12.0833333,11.5779141 16.4112474,7.25 21.75,7.25 C27.0887526,7.25 31.4166667,11.5779141 31.4166667,16.9166667 C31.4166667,22.2554192 27.0887526,26.5833333 21.75,26.5833333 Z" id="Combined-Shape" fill="#FF725C" fill-rule="nonzero" opacity="0.3"></path>
                        <path d="M0.0015749037,48.8147466 C0.938291435,37.2807468 10.2996215,31.4166667 21.7097416,31.4166667 C33.2804396,31.4166667 42.7868023,36.9585495 43.4949596,48.8166667 C43.5231708,49.2890624 43.4949596,50.75 41.6795248,50.75 C32.724383,50.75 19.4172514,50.75 1.75813038,50.75 C1.15205437,50.75 -0.0494492304,49.4430183 0.0015749037,48.8147466 Z" id="Mask-Copy" fill="#FF725C"></path>
                    </g>
                </g>
            </g>
        </g>
    </g>
</svg>