<?xml version="1.0" encoding="UTF-8"?>
<svg width="33px" height="32px" viewBox="0 0 33 32" version="1.1" xmlns="http://www.w3.org/2000/svg" xmlns:xlink="http://www.w3.org/1999/xlink">
    <!-- Generator: sketchtool 52.2 (67145) - http://www.bohemiancoding.com/sketch -->
    <title>D7DA8F76-FCE3-4804-9160-9AE2AC9BD51C@svg</title>
    <desc>Created with sketchtool.</desc>
    <g id="Design" stroke="none" stroke-width="1" fill="none" fill-rule="evenodd">
        <g id="Contact-Us-UI" transform="translate(-1035.000000, -1063.000000)">
            <g id="Call" transform="translate(1031.000000, 1056.000000)">
                <g id="call-us" transform="translate(0.000000, 4.000000)">
                    <rect id="bound" x="0" y="0" width="42" height="42"></rect>
                    <path d="M22.8899433,25.8719885 L26.7469885,22.0149433 C27.8122493,20.9496824 28.0763401,19.3222823 27.4026098,17.9748221 L27.1840693,17.537741 C26.5103393,16.1902808 26.7744299,14.5628807 27.8396909,13.4976198 L32.6220981,8.71521261 C32.9638068,8.37350384 33.5178261,8.37350384 33.8595348,8.71521261 C33.926036,8.78171376 33.9813812,8.85850108 34.0234401,8.94261914 L35.9553976,12.8065341 C37.4333684,15.7624752 36.8540291,19.3325239 34.5171524,21.6694005 L24.0192078,32.1673452 C21.4755137,34.7110393 17.7129764,35.5992539 14.3002525,34.4616793 L10.0749132,33.0532328 C9.61646282,32.900416 9.36869783,32.404886 9.52151463,31.9464357 C9.56447084,31.8175671 9.63684108,31.7004695 9.73289408,31.6044165 L14.3726198,26.9646909 C15.4378807,25.8994298 17.0652808,25.6353393 18.412741,26.3090693 L18.8498221,26.5276098 C20.1972824,27.2013401 21.8246824,26.9372493 22.8899433,25.8719885 Z" id="Path-76" fill="#3949AB"></path>
                    <path d="M24.7591328,10.5125148 L24.4242229,13.9964544 C21.8367431,13.7477209 19.2670112,14.6456781 17.3938447,16.5188447 C15.5268104,18.385879 14.6284528,20.9449804 14.8691234,23.5246116 L11.3842571,23.8497376 C11.0478298,20.2437368 12.3074688,16.6554731 14.918971,14.043971 C17.5390686,11.4238734 21.1421745,10.1648178 24.7591328,10.5125148 Z M25.3716642,3.53903028 L25.0478358,7.02401742 C20.4082023,6.5928983 15.8025129,8.21068155 12.4440972,11.5690972 C9.09032446,14.92287 7.47225001,19.5205276 7.89729766,24.1542087 L4.41193058,24.4739215 C3.89289212,18.8155942 5.87234517,13.1911018 9.9692235,9.09422349 C14.0717804,4.99166656 19.7060742,3.01257833 25.3716642,3.53903028 Z" id="Combined-Shape" fill="#3949AB" fill-rule="nonzero" opacity="0.3"></path>
                </g>
            </g>
        </g>
    </g>
</svg>