<?xml version="1.0" encoding="UTF-8"?>
<svg width="40px" height="56px" viewBox="0 0 40 56" version="1.1" xmlns="http://www.w3.org/2000/svg" xmlns:xlink="http://www.w3.org/1999/xlink">
    <!-- Generator: sketchtool 52.2 (67145) - http://www.bohemiancoding.com/sketch -->
    <title>B06ACFDA-D450-4023-BB52-8A06B7E206BE@svg</title>
    <desc>Created with sketchtool.</desc>
    <g id="Additional" stroke="none" stroke-width="1" fill="none" fill-rule="evenodd">
        <g id="Partners-UI-—-know-some-landlords" transform="translate(-1241.000000, -655.000000)">
            <g id="2" transform="translate(215.000000, 124.000000)">
                <g id="Group-2" transform="translate(0.000000, 469.000000)">
                    <g id="Group-11-Copy-2" transform="translate(722.000000, 0.000000)">
                        <g id="clipboard-check" transform="translate(294.000000, 60.000000)">
                            <rect id="bound" x="0" y="0" width="60" height="60"></rect>
                            <path d="M20,7.5 L20,8.75 C20,10.8210678 21.6789322,12.5 23.75,12.5 L36.25,12.5 C38.3210677,12.5 40,10.8210678 40,8.75 L40,7.5 L45,7.5 C47.7614237,7.5 50,9.73857625 50,12.5 L50,52.5 C50,55.2614237 47.7614237,57.5 45,57.5 L15,57.5 C12.2385762,57.5 10,55.2614237 10,52.5 L10,12.5 C10,9.73857625 12.2385762,7.5 15,7.5 L20,7.5 Z" id="Combined-Shape" fill="#FF725C" opacity="0.3"></path>
                            <path d="M27.1875,39.375 C26.5885418,39.375 25.9895832,39.1354168 25.5104168,38.65625 L20.71875,33.8645833 C19.7604167,32.90625 19.7604167,31.46875 20.71875,30.5104168 C21.6770833,29.5520833 23.234375,29.5520833 24.0729167,30.5104168 L27.1875,33.625 L35.09375,25.71875 C36.0520833,24.7604167 37.4895832,24.7604167 38.4479168,25.71875 C39.40625,26.6770833 39.40625,28.1145832 38.4479168,29.0729168 L28.8645833,38.65625 C28.3854168,39.1354168 27.7864582,39.375 27.1875,39.375 Z" id="check-path" fill="#FF725C"></path>
                            <path d="M27.5,5 C27.5,3.61928812 28.6192883,2.5 30,2.5 C31.3807117,2.5 32.5,3.61928812 32.5,5 L36.25,5 C36.940356,5 37.5,5.55964407 37.5,6.25 L37.5,8.75 C37.5,9.44035593 36.940356,10 36.25,10 L23.75,10 C23.0596441,10 22.5,9.44035593 22.5,8.75 L22.5,6.25 C22.5,5.55964407 23.0596441,5 23.75,5 L27.5,5 Z" id="Combined-Shape" fill="#FF725C"></path>
                        </g>
                    </g>
                </g>
            </g>
        </g>
    </g>
</svg>