<?xml version="1.0" encoding="UTF-8"?>
<svg width="40px" height="40px" viewBox="0 0 40 40" version="1.1" xmlns="http://www.w3.org/2000/svg" xmlns:xlink="http://www.w3.org/1999/xlink">
    <!-- Generator: sketchtool 52.2 (67145) - http://www.bohemiancoding.com/sketch -->
    <title>AB658104-B79C-4E5C-89AA-D1FAE1DBA19F@svg</title>
    <desc>Created with sketchtool.</desc>
    <g id="Additional" stroke="none" stroke-width="1" fill="none" fill-rule="evenodd">
        <g id="Partners-UI-—-insurance-agent-or-broker" transform="translate(-880.000000, -663.000000)">
            <g id="2" transform="translate(215.000000, 124.000000)">
                <g id="Group-11-Copy-4" transform="translate(481.000000, 469.000000)">
                    <g id="complement" transform="translate(174.000000, 60.000000)">
                        <rect id="bound" x="0" y="0" width="60" height="60"></rect>
                        <path d="M39.9890178,15 L22.5,15 C18.3578644,15 15,18.3578644 15,22.5 L15,39.9890178 C11.7546361,39.8290952 10,37.9266047 10,34.5454545 L10,15.4545454 C10,11.9187796 11.9187796,10 15.4545454,10 L34.5454545,10 C37.9266047,10 39.8290952,11.7546361 39.9890178,15 Z" id="Combined-Shape" fill="#FF725C" opacity="0.3"></path>
                        <path d="M25.4545455,20 L44.5454545,20 C48.0812203,20 50,21.9187797 50,25.4545455 L50,44.5454545 C50,48.0812203 48.0812203,50 44.5454545,50 L25.4545455,50 C21.9187797,50 20,48.0812203 20,44.5454545 L20,25.4545455 C20,21.9187797 21.9187797,20 25.4545455,20 Z" id="Rectangle-19-Copy-3" fill="#FF725C"></path>
                    </g>
                </g>
            </g>
        </g>
    </g>
</svg>