<?xml version="1.0" encoding="UTF-8"?>
<svg width="32px" height="31px" viewBox="0 0 32 31" version="1.1" xmlns="http://www.w3.org/2000/svg" xmlns:xlink="http://www.w3.org/1999/xlink">
    <!-- Generator: sketchtool 52.2 (67145) - http://www.bohemiancoding.com/sketch -->
    <title>688D1766-A6FE-4F07-9D11-F61F06B28045@svg</title>
    <desc>Created with sketchtool.</desc>
    <g id="Design" stroke="none" stroke-width="1" fill="none" fill-rule="evenodd">
        <g id="Contact-Us-UI" transform="translate(-1036.000000, -719.000000)">
            <g id="Mail" transform="translate(1031.000000, 712.000000)">
                <g id="contact-us" transform="translate(0.000000, 4.000000)">
                    <rect id="bound" x="0" y="0" width="42" height="42"></rect>
                    <path d="M10.5,3.5 L31.5,3.5 C32.4664982,3.5 33.25,4.28350169 33.25,5.25 L33.25,21 C33.25,21.9664982 32.4664982,22.75 31.5,22.75 L10.5,22.75 C9.53350169,22.75 8.75,21.9664982 8.75,21 L8.75,5.25 C8.75,4.28350169 9.53350169,3.5 10.5,3.5 Z M13.125,8.75 C12.6417509,8.75 12.25,9.14175085 12.25,9.625 C12.25,10.1082491 12.6417509,10.5 13.125,10.5 L23.625,10.5 C24.1082492,10.5 24.5,10.1082491 24.5,9.625 C24.5,9.14175085 24.1082492,8.75 23.625,8.75 L13.125,8.75 Z M13.125,12.25 C12.6417509,12.25 12.25,12.6417509 12.25,13.125 C12.25,13.6082491 12.6417509,14 13.125,14 L18.375,14 C18.8582492,14 19.25,13.6082491 19.25,13.125 C19.25,12.6417509 18.8582492,12.25 18.375,12.25 L13.125,12.25 Z" id="Combined-Shape" fill="#3949AB" fill-rule="nonzero" opacity="0.3"></path>
                    <path d="M6.63730424,11.501942 L21,21.875 L35.3626957,11.501942 C35.7544558,11.2190041 36.3014066,11.307222 36.5843443,11.698982 C36.6920363,11.8480941 36.75,12.0273515 36.75,12.2112863 L36.75,29.75 C36.75,31.6829966 35.1829966,33.25 33.25,33.25 L8.75,33.25 C6.81700337,33.25 5.25,31.6829966 5.25,29.75 L5.25,12.2112863 C5.25,11.7280371 5.64175085,11.3362863 6.125,11.3362863 C6.30893478,11.3362863 6.48819213,11.3942499 6.63730424,11.501942 Z" id="Combined-Shape" fill="#3949AB"></path>
                </g>
            </g>
        </g>
    </g>
</svg>