<?xml version="1.0" encoding="UTF-8"?>
<svg width="50px" height="41px" viewBox="0 0 50 41" version="1.1" xmlns="http://www.w3.org/2000/svg" xmlns:xlink="http://www.w3.org/1999/xlink">
    <!-- Generator: sketchtool 52.2 (67145) - http://www.bohemiancoding.com/sketch -->
    <title>D718A265-174C-479B-AB58-C6A5ADC14F3F@svg</title>
    <desc>Created with sketchtool.</desc>
    <g id="Additional" stroke="none" stroke-width="1" fill="none" fill-rule="evenodd">
        <g id="Partners-UI-—-digital-platform" transform="translate(-1357.000000, -665.000000)">
            <g id="2" transform="translate(215.000000, 124.000000)">
                <g id="Group-11-Copy-5" transform="translate(963.000000, 469.000000)">
                    <g id="display-1" transform="translate(174.000000, 60.000000)">
                        <rect id="bound" x="0" y="0" width="60" height="60"></rect>
                        <path d="M27.5,50 L27.5,42.5 C27.5,41.1192882 28.6192883,40 30,40 C31.3807117,40 32.5,41.1192882 32.5,42.5 L32.5,50 L38.75,50 C39.440356,50 40,50.559644 40,51.25 C40,51.940356 39.440356,52.5 38.75,52.5 L21.25,52.5 C20.5596441,52.5 20,51.940356 20,51.25 C20,50.559644 20.5596441,50 21.25,50 L27.5,50 Z" id="Combined-Shape" fill="#FF725C" opacity="0.3"></path>
                        <path d="M7.5,12.5 L52.5,12.5 C53.8807118,12.5 55,13.6192881 55,15 L55,40 C55,41.3807118 53.8807118,42.5 52.5,42.5 L7.5,42.5 C6.11928812,42.5 5,41.3807118 5,40 L5,15 C5,13.6192881 6.11928812,12.5 7.5,12.5 Z M11.25,20 C10.5596441,20 10,20.5596441 10,21.25 C10,21.9403559 10.5596441,22.5 11.25,22.5 L33.75,22.5 C34.440356,22.5 35,21.9403559 35,21.25 C35,20.5596441 34.440356,20 33.75,20 L11.25,20 Z M11.25,25 C10.5596441,25 10,25.559644 10,26.25 C10,26.940356 10.5596441,27.5 11.25,27.5 L18.75,27.5 C19.4403559,27.5 20,26.940356 20,26.25 C20,25.559644 19.4403559,25 18.75,25 L11.25,25 Z" id="Combined-Shape" fill="#FF725C" fill-rule="nonzero"></path>
                    </g>
                </g>
            </g>
        </g>
    </g>
</svg>