<?xml version="1.0" encoding="UTF-8"?>
<svg width="32px" height="38px" viewBox="0 0 32 38" version="1.1" xmlns="http://www.w3.org/2000/svg" xmlns:xlink="http://www.w3.org/1999/xlink">
    <!-- Generator: sketchtool 52.2 (67145) - http://www.bohemiancoding.com/sketch -->
    <title>3FA15BCC-0782-4BB1-9CE1-1E32B563DE44@svg</title>
    <desc>Created with sketchtool.</desc>
    <g id="Design" stroke="none" stroke-width="1" fill="none" fill-rule="evenodd">
        <g id="Contact-Us-UI" transform="translate(-1036.000000, -873.000000)">
            <g id="Address" transform="translate(1031.000000, 866.000000)">
                <g id="find-us" transform="translate(0.000000, 4.000000)">
                    <rect id="bound" x="0" y="0" width="42" height="42"></rect>
                    <path d="M23.625,36.75 L23.625,31.5 C23.625,30.5335018 22.8414982,29.75 21.875,29.75 L20.125,29.75 C19.1585018,29.75 18.375,30.5335018 18.375,31.5 L18.375,36.75 L8.75,36.75 L8.75,7 C8.75,5.06700337 10.3170034,3.5 12.25,3.5 L29.75,3.5 C31.6829966,3.5 33.25,5.06700337 33.25,7 L33.25,36.75 L23.625,36.75 Z M15.75,7 C14.7835017,7 14,7.78350169 14,8.75 L14,10.5 C14,11.4664983 14.7835017,12.25 15.75,12.25 L17.5,12.25 C18.4664982,12.25 19.25,11.4664983 19.25,10.5 L19.25,8.75 C19.25,7.78350169 18.4664982,7 17.5,7 L15.75,7 Z M24.5,7 C23.5335018,7 22.75,7.78350169 22.75,8.75 L22.75,10.5 C22.75,11.4664983 23.5335018,12.25 24.5,12.25 L26.25,12.25 C27.2164982,12.25 28,11.4664983 28,10.5 L28,8.75 C28,7.78350169 27.2164982,7 26.25,7 L24.5,7 Z M15.75,14 C14.7835017,14 14,14.7835017 14,15.75 L14,17.5 C14,18.4664982 14.7835017,19.25 15.75,19.25 L17.5,19.25 C18.4664982,19.25 19.25,18.4664982 19.25,17.5 L19.25,15.75 C19.25,14.7835017 18.4664982,14 17.5,14 L15.75,14 Z M15.75,21 C14.7835017,21 14,21.7835018 14,22.75 L14,24.5 C14,25.4664982 14.7835017,26.25 15.75,26.25 L17.5,26.25 C18.4664982,26.25 19.25,25.4664982 19.25,24.5 L19.25,22.75 C19.25,21.7835018 18.4664982,21 17.5,21 L15.75,21 Z M24.5,21 C23.5335018,21 22.75,21.7835018 22.75,22.75 L22.75,24.5 C22.75,25.4664982 23.5335018,26.25 24.5,26.25 L26.25,26.25 C27.2164982,26.25 28,25.4664982 28,24.5 L28,22.75 C28,21.7835018 27.2164982,21 26.25,21 L24.5,21 Z" id="Combined-Shape" fill="#3949AB" fill-rule="nonzero"></path>
                    <rect id="Rectangle-Copy-2" fill="#FFFFFF" x="22.75" y="14" width="5.25" height="5.25" rx="1.75"></rect>
                    <path d="M7,36.75 L35,36.75 C35.9664982,36.75 36.75,37.5335018 36.75,38.5 L36.75,39.2 C36.75,39.7798989 36.2798989,40.25 35.7,40.25 L6.3,40.25 C5.72010101,40.25 5.25,39.7798989 5.25,39.2 L5.25,38.5 C5.25,37.5335018 6.03350169,36.75 7,36.75 Z" id="Rectangle-2" fill="#3949AB" opacity="0.3"></path>
                </g>
            </g>
        </g>
    </g>
</svg>