<?xml version="1.0" encoding="UTF-8"?>
<svg width="56px" height="48px" viewBox="0 0 56 48" version="1.1" xmlns="http://www.w3.org/2000/svg" xmlns:xlink="http://www.w3.org/1999/xlink">
    <!-- Generator: sketchtool 52.2 (67145) - http://www.bohemiancoding.com/sketch -->
    <title>ADABDDB9-8A73-4C67-BA8A-6A8AECCA8653@svg</title>
    <desc>Created with sketchtool.</desc>
    <g id="Additional" stroke="none" stroke-width="1" fill="none" fill-rule="evenodd">
        <g id="Partners-UI-—-digital-platform" transform="translate(-872.000000, -658.000000)">
            <g id="2" transform="translate(215.000000, 124.000000)">
                <g id="Group-11-Copy-4" transform="translate(481.000000, 469.000000)">
                    <g id="group-folders" transform="translate(174.000000, 60.000000)">
                        <rect id="bound" x="0" y="0" width="60" height="60"></rect>
                        <path d="M11.25,52.5 L53.75,52.5 C55.8210677,52.5 57.5,50.8210677 57.5,48.75 L57.5,21.25 C57.5,19.1789322 55.8210677,17.5 53.75,17.5 L27.5,17.5 L21.0983496,11.0983496 C20.3950881,10.3950881 19.441261,10 18.4466992,10 L11.25,10 C9.1789322,10 7.5,11.6789322 7.5,13.75 L7.5,48.75 C7.5,50.8210677 9.1789322,52.5 11.25,52.5 Z" id="Combined-Shape" fill="#FF725C" opacity="0.3"></path>
                        <path d="M6.25,47.5 L48.75,47.5 C50.8210677,47.5 52.5,45.8210677 52.5,43.75 L52.5,16.25 C52.5,14.1789322 50.8210677,12.5 48.75,12.5 L22.5,12.5 L16.0983496,6.09834958 C15.3950881,5.39508815 14.441261,5 13.4466992,5 L6.25,5 C4.1789322,5 2.5,6.6789322 2.5,8.75 L2.5,43.75 C2.5,45.8210677 4.1789322,47.5 6.25,47.5 Z" id="Combined-Shape-Copy" fill="#FF725C"></path>
                    </g>
                </g>
            </g>
        </g>
    </g>
</svg>