<?xml version="1.0" encoding="UTF-8"?>
<svg width="60px" height="46px" viewBox="0 0 60 46" version="1.1" xmlns="http://www.w3.org/2000/svg" xmlns:xlink="http://www.w3.org/1999/xlink">
    <!-- Generator: sketchtool 52.2 (67145) - http://www.bohemiancoding.com/sketch -->
    <title>3795B642-9DEA-4092-97B7-D5B4764F8B53@svg</title>
    <desc>Created with sketchtool.</desc>
    <g id="Additional" stroke="none" stroke-width="1" fill="none" fill-rule="evenodd">
        <g id="Partners-UI-—-know-some-landlords" transform="translate(-509.000000, -660.000000)">
            <g id="2" transform="translate(215.000000, 124.000000)">
                <g id="Group-2" transform="translate(0.000000, 469.000000)">
                    <g id="Group-11-Copy">
                        <g id="group" transform="translate(294.000000, 60.000000)">
                            <polygon id="Shape" points="0 0 60 0 60 60 0 60"></polygon>
                            <path d="M45,35 C40.8578645,35 37.5,31.6421355 37.5,27.5 C37.5,23.3578644 40.8578645,20 45,20 C49.1421355,20 52.5,23.3578644 52.5,27.5 C52.5,31.6421355 49.1421355,35 45,35 Z M22.5,27.5 C16.9771525,27.5 12.5,23.0228475 12.5,17.5 C12.5,11.9771525 16.9771525,7.5 22.5,7.5 C28.0228475,7.5 32.5,11.9771525 32.5,17.5 C32.5,23.0228475 28.0228475,27.5 22.5,27.5 Z" id="Combined-Shape" fill="#FF725C" fill-rule="nonzero" opacity="0.3"></path>
                            <path d="M44.0029903,37.5015435 C52.5192608,37.5946335 59.4729373,41.9003545 59.9962343,51 C60.0173115,51.366514 59.9962343,52.5 58.6398748,52.5 L49,52.5 C49,46.8726635 47.1407338,41.6795817 44.0029903,37.5015435 Z M0.00162921073,50.4980138 C0.970646313,38.5662898 10.6547809,32.5 22.4583534,32.5 C34.428041,32.5 44.2622093,38.2329822 44.9947858,50.5 C45.0239698,50.9886853 44.9947858,52.5 43.1167498,52.5 C33.85281,52.5 20.0868118,52.5 1.81875557,52.5 C1.19178039,52.5 -0.0511543762,51.14795 0.00162921073,50.4980138 Z" id="Combined-Shape" fill="#FF725C" fill-rule="nonzero"></path>
                        </g>
                    </g>
                </g>
            </g>
        </g>
    </g>
</svg>