<?xml version="1.0" encoding="UTF-8"?>
<svg width="63px" height="63px" viewBox="0 0 63 63" version="1.1" xmlns="http://www.w3.org/2000/svg" xmlns:xlink="http://www.w3.org/1999/xlink">
    <!-- Generator: sketchtool 52.2 (67145) - http://www.bohemiancoding.com/sketch -->
    <title>EE6DA52E-69F8-49F4-9EE2-7172C7803FA4@svg</title>
    <desc>Created with sketchtool.</desc>
    <g id="Design" stroke="none" stroke-width="1" fill="none" fill-rule="evenodd" stroke-linecap="round" stroke-linejoin="round">
        <g id="Landlords-UI" transform="translate(-869.000000, -1384.000000)" stroke-width="3.5">
            <g id="1" transform="translate(215.000000, 1074.000000)">
                <g id="Group-9">
                    <g id="Points" transform="translate(0.000000, 312.000000)">
                        <g id="Group-4-Copy-9" transform="translate(466.000000, 0.000000)">
                            <g id="2-copy" transform="translate(189.000000, 0.000000)">
                                <g id="Group-13" transform="translate(0.000000, 27.169811)" stroke="#3949AB">
                                    <ellipse id="Oval" cx="12.7521552" cy="8.03675992" rx="7.88793103" ry="7.90500976"></ellipse>
                                    <path d="M24.5840517,31.7517892 C24.5840516,25.2030648 19.2867311,19.8942747 12.7521552,19.8942747 C6.21757921,19.8942747 0.920258718,25.2030648 0.920258621,31.7517892" id="Shape"></path>
                                    <path d="M58.1077586,31.7517892 C58.1077586,25.2030647 52.8104381,19.8942746 46.2758621,19.8942746 C39.741286,19.8942746 34.4439655,25.2030647 34.4439655,31.7517892" id="Shape"></path>
                                    <ellipse id="Oval" cx="46.2758621" cy="8.03675992" rx="7.88793103" ry="7.90500976"></ellipse>
                                    <path d="M38.387931,8.03675992 C38.387931,8.03675992 38.387931,17.9180221 32.4719828,17.9180221" id="Shape"></path>
                                    <path d="M54.1637931,8.03675992 C54.1637931,8.03675992 54.1637931,17.9180221 60.0797414,17.9180221" id="Shape"></path>
                                </g>
                                <g id="Group-11" opacity="0.5" transform="translate(10.166667, 0.000000)" stroke="#C71B00">
                                    <path d="M14.6851852,6.2214062 L10.8391366,2.02511531 C9.66846693,0.731837954 8.04600752,0 6.34952602,0 C4.65304452,0 3.03058511,0.731837954 1.85991547,2.02511531 C-0.619971825,4.76107606 -0.619971825,9.06705031 1.85991547,11.8030111 L13.318893,24.2896664 C13.6753416,24.6829209 14.1689973,24.905486 14.6851852,24.9056604 L11.2962963,12.4528302 L14.6851852,6.2214062 Z" id="Shape"></path>
                                    <path d="M22.5925926,6.2214062 L26.4386412,2.02511531 C27.6093108,0.731837954 29.2317703,0 30.9282518,0 C32.6247333,0 34.2471927,0.731837954 35.4178623,2.02511531 C37.8977496,4.76107606 37.8977496,9.06705031 35.4178623,11.8030111 L23.9588848,24.2896664 C23.6024361,24.6829209 23.1087804,24.905486 22.5925926,24.9056604 L19.2037037,12.4528302 L22.5925926,6.2214062 Z" id="Shape"></path>
                                </g>
                            </g>
                        </g>
                    </g>
                </g>
            </g>
        </g>
    </g>
</svg>