<?xml version="1.0" encoding="UTF-8"?>
<svg width="54px" height="42px" viewBox="0 0 54 42" version="1.1" xmlns="http://www.w3.org/2000/svg" xmlns:xlink="http://www.w3.org/1999/xlink">
    <!-- Generator: sketchtool 52.2 (67145) - http://www.bohemiancoding.com/sketch -->
    <title>615821F2-A9F4-4FC7-B35C-BA655998EF55@svg</title>
    <desc>Created with sketchtool.</desc>
    <g id="Design" stroke="none" stroke-width="1" fill="none" fill-rule="evenodd">
        <g id="Landlords-UI" transform="translate(-1353.000000, -2972.000000)">
            <g id="2" transform="translate(215.000000, 2579.000000)">
                <g id="Group-11-Copy-3" transform="translate(963.000000, 300.000000)">
                    <g id="thunder-move" transform="translate(173.000000, 84.000000)">
                        <rect id="Rectangle-10" x="0" y="0" width="60" height="60"></rect>
                        <path d="M40.9350943,49.8473585 L55.5566248,27.9150628 C56.1310355,27.0534465 55.8982095,25.8893165 55.0365933,25.3149058 C54.7285918,25.1095713 54.3667023,25 53.9965305,25 L42.5,25 L42.5,11.1927043 C42.5,10.1571704 41.660534,9.31770433 40.625,9.31770433 C39.9980878,9.31770433 39.412654,9.63101895 39.0649058,10.1526415 L24.4433752,32.0849373 C23.8689644,32.9465535 24.1017904,34.1106835 24.9634067,34.6850943 C25.2714083,34.8904288 25.6332978,35 26.0034695,35 L37.5,35 L37.5,48.8072958 C37.5,49.8428295 38.339466,50.6822958 39.375,50.6822958 C40.0019123,50.6822958 40.587346,50.368981 40.9350943,49.8473585 Z" id="Path-3" fill="#26CFB1" fill-rule="nonzero"></path>
                        <path d="M11.25,12.5 L23.75,12.5 C25.8210678,12.5 27.5,14.1789322 27.5,16.25 C27.5,18.3210678 25.8210678,20 23.75,20 L11.25,20 C9.1789322,20 7.5,18.3210678 7.5,16.25 C7.5,14.1789322 9.1789322,12.5 11.25,12.5 Z M11.25,42.5 L23.75,42.5 C25.8210678,42.5 27.5,44.1789323 27.5,46.25 C27.5,48.3210677 25.8210678,50 23.75,50 L11.25,50 C9.1789322,50 7.5,48.3210677 7.5,46.25 C7.5,44.1789323 9.1789322,42.5 11.25,42.5 Z M6.25,27.5 L16.25,27.5 C18.3210678,27.5 20,29.1789322 20,31.25 C20,33.3210677 18.3210678,35 16.25,35 L6.25,35 C4.1789322,35 2.5,33.3210677 2.5,31.25 C2.5,29.1789322 4.1789322,27.5 6.25,27.5 Z" id="Combined-Shape" fill="#3949AB" fill-rule="nonzero"></path>
                    </g>
                </g>
            </g>
        </g>
    </g>
</svg>