<?xml version="1.0" encoding="UTF-8"?>
<svg width="59px" height="60px" viewBox="0 0 59 60" version="1.1" xmlns="http://www.w3.org/2000/svg" xmlns:xlink="http://www.w3.org/1999/xlink">
    <!-- Generator: sketchtool 52.2 (67145) - http://www.bohemiancoding.com/sketch -->
    <title>50F5DCD8-EB60-4378-8436-67795EC182B8@svg</title>
    <desc>Created with sketchtool.</desc>
    <g id="Design" stroke="none" stroke-width="1" fill="none" fill-rule="evenodd">
        <g id="Landlords-UI" transform="translate(-389.000000, -2963.000000)" fill-rule="nonzero">
            <g id="2" transform="translate(215.000000, 2579.000000)">
                <g id="Group-11-Copy" transform="translate(0.000000, 300.000000)">
                    <g id="house-3" transform="translate(174.000000, 84.000000)">
                        <path d="M56.5416667,54.0725 L2.45833333,54.0725 C1.10063332,54.0725 1.66270297e-16,55.1917881 0,56.5725 C-1.66270297e-16,57.9532119 1.10063332,59.0725 2.45833333,59.0725 L56.5416667,59.0725 C57.8993667,59.0725 59,57.9532119 59,56.5725 C59,55.1917881 57.8993667,54.0725 56.5416667,54.0725 Z" id="Shape" fill="#3949AB"></path>
                        <path d="M51.0513191,12.7725 C51.2419547,12.9125397 51.4953573,12.934287 51.7072446,12.8287923 C51.9191319,12.7232975 52.0537016,12.508386 52.0555745,12.2725 L52.0555745,4.0725 C52.0555745,3.38214406 51.4935489,2.8225 50.8002553,2.8225 L44.5236596,2.8225 C43.830366,2.8225 43.2683404,3.38214406 43.2683404,4.0725 L43.2683404,6.41 C43.2683404,6.80344663 43.4543714,7.17393202 43.7704681,7.41 L51.0513191,12.7725 Z" id="Shape" fill="#3949AB"></path>
                        <path d="M4.43880851,24.0725 L54.5611915,24.0725 C55.6390804,24.0660855 56.5925694,23.3752634 56.9303615,22.3559883 C57.2681536,21.3367131 56.9148564,20.2164789 56.0525106,19.5725 L31.7394894,1.6675 C30.4103592,0.682457933 28.5896408,0.682457933 27.2605106,1.6675 L2.95,19.56 C2.08800964,20.2036991 1.73459628,21.3232994 2.07173372,22.3423146 C2.40887117,23.3613298 3.36137941,24.0525245 4.43880851,24.06 L4.43880851,24.0725 Z" id="Shape" fill="#26CFB1"></path>
                        <path d="M27.6170213,51.615 L50.8404255,51.615 C51.5337192,51.615 52.0957447,51.0553559 52.0957447,50.365 L52.0957447,27.8225 C52.0957447,27.1321441 51.5337192,26.5725 50.8404255,26.5725 L8.15957447,26.5725 C7.46628085,26.5725 6.90425532,27.1321441 6.90425532,27.8225 L6.90425532,50.365 C6.90425532,51.0553559 7.46628085,51.615 8.15957447,51.615 L13.8085106,51.615 C14.5018043,51.615 15.0638298,51.0553559 15.0638298,50.365 L15.0638298,37.8225 C15.0638298,37.1321441 15.6258553,36.5725 16.3191489,36.5725 L25.106383,36.5725 C25.7996766,36.5725 26.3617021,37.1321441 26.3617021,37.8225 L26.3617021,50.365 C26.3617021,51.0553559 26.9237277,51.615 27.6170213,51.615 Z M33.2659574,37.8225 C33.2659574,37.1321441 33.827983,36.5725 34.5212766,36.5725 L44.5638298,36.5725 C45.2571234,36.5725 45.8191489,37.1321441 45.8191489,37.8225 L45.8191489,45.3225 C45.8191489,46.0128559 45.2571234,46.5725 44.5638298,46.5725 L34.5212766,46.5725 C33.827983,46.5725 33.2659574,46.0128559 33.2659574,45.3225 L33.2659574,37.8225 Z" id="Shape" fill="#26CFB1"></path>
                    </g>
                </g>
            </g>
        </g>
    </g>
</svg>