<?xml version="1.0" encoding="UTF-8"?>
<svg width="62px" height="62px" viewBox="0 0 62 62" version="1.1" xmlns="http://www.w3.org/2000/svg" xmlns:xlink="http://www.w3.org/1999/xlink">
    <!-- Generator: sketchtool 52.2 (67145) - http://www.bohemiancoding.com/sketch -->
    <title>8185104E-91D1-45A8-A395-48CC58C96011@svg</title>
    <desc>Created with sketchtool.</desc>
    <g id="Design" stroke="none" stroke-width="1" fill="none" fill-rule="evenodd" stroke-linecap="round" stroke-linejoin="round">
        <g id="Landlords-UI" transform="translate(-1336.000000, -1385.000000)" stroke-width="3.5">
            <g id="1" transform="translate(215.000000, 1074.000000)">
                <g id="Group-9">
                    <g id="Points" transform="translate(0.000000, 312.000000)">
                        <g id="Group-4-Copy-11" transform="translate(933.000000, 0.000000)">
                            <g id="3" transform="translate(189.000000, 0.000000)">
                                <g id="Group-12" opacity="0.5" transform="translate(19.888889, 28.888889)" stroke="#C71B00">
                                    <rect id="Rectangle-path" transform="translate(15.534387, 20.507663) rotate(-90.000000) translate(-15.534387, -20.507663) " x="5.83611111" y="4.99042146" width="19.3965517" height="31.0344828" rx="2.5862069"></rect>
                                    <path d="M7.20680077,10.809387 L8.93180077,3.69731801 C9.17327781,2.6967458 9.80250127,1.833158 10.680939,1.29668525 C11.5593768,0.76021249 12.6150081,0.594838704 13.6154215,0.83697318 L36.2318008,6.29904215 C37.2318953,6.54108977 38.0948561,7.17055034 38.6308034,8.04892192 C39.1667507,8.9272935 39.3317728,9.98260842 39.0895594,10.9826628 L36.3585249,22.2921456 C36.0900295,23.4021918 35.3460438,24.3375297 34.3248569,24.8488708 C33.30367,25.3602118 32.1090489,25.3955964 31.059387,24.9455939" id="Shape"></path>
                                    <path d="M15.9300766,19.5378352 C16.4656976,19.5378352 16.8999042,19.9720418 16.8999042,20.5076628 C16.8999042,21.0432838 16.4656976,21.4774904 15.9300766,21.4774904 C15.3944556,21.4774904 14.960249,21.0432838 14.960249,20.5076628 C14.960249,19.9720418 15.3944556,19.5378352 15.9300766,19.5378352" id="Shape"></path>
                                </g>
                                <g id="Group-14" stroke="#3949AB">
                                    <path d="M0.905172414,43.5775862 C0.909202444,37.986865 3.5887541,32.7357735 8.11333482,29.4518201 C12.6379155,26.1678668 18.4609212,25.2477782 23.7775862,26.9767241" id="Shape"></path>
                                    <path d="M9.16810345,6.15775862 C12.5065862,9.61910247 17.1091152,11.5740103 21.9181034,11.5732759 C24.3299147,11.5749032 26.7166372,11.0838297 28.9318966,10.1301724" id="Shape"></path>
                                    <circle id="Oval" cx="18.362069" cy="11.5732759" r="10.6681034"></circle>
                                </g>
                            </g>
                        </g>
                    </g>
                </g>
            </g>
        </g>
    </g>
</svg>