<?xml version="1.0" encoding="UTF-8"?>
<svg width="56px" height="64px" viewBox="0 0 56 64" version="1.1" xmlns="http://www.w3.org/2000/svg" xmlns:xlink="http://www.w3.org/1999/xlink">
    <!-- Generator: sketchtool 52.2 (67145) - http://www.bohemiancoding.com/sketch -->
    <title>1A4C4BD7-D46B-4EA9-B022-AADA8A10ECB1@svg</title>
    <desc>Created with sketchtool.</desc>
    <g id="Design" stroke="none" stroke-width="1" fill="none" fill-rule="evenodd" stroke-linecap="round" stroke-linejoin="round">
        <g id="Landlords-UI" transform="translate(-405.000000, -1384.000000)" stroke-width="3.5">
            <g id="1" transform="translate(215.000000, 1074.000000)">
                <g id="Group-9">
                    <g id="Points" transform="translate(0.000000, 312.000000)">
                        <g id="Group-4-Copy-10">
                            <g id="1-copy" transform="translate(192.000000, 0.000000)">
                                <ellipse id="Oval" stroke="#3949AB" cx="27.95" cy="7.5" rx="6.825" ry="6.84782609"></ellipse>
                                <path d="M20.15,59.3478261 L20.15,28.0434783 L1.6432,7.17391304 C0.64746428,6.14168845 0.295491659,4.6450294 0.726301207,3.27507321 C1.15711076,1.90511701 2.30142952,0.88214876 3.70728446,0.610211509 C5.11313941,0.338274257 6.55447304,0.861094749 7.462,1.97217391 L19.5728,15.633913 C21.0528055,17.3046252 23.1741944,18.2606391 25.402,18.2608696 L31.85,18.2608696 C38.3117316,18.2608696 43.55,23.5166573 43.55,30 L43.55,35.8695652 C43.55,38.0306795 41.8039105,39.7826087 39.65,39.7826087 C37.4960895,39.7826087 35.75,38.0306795 35.75,35.8695652 L35.75,30" id="Shape" stroke="#3949AB"></path>
                                <g id="Group-15" opacity="0.5" transform="translate(27.659574, 38.888889)" stroke="#C71B00">
                                    <path d="M6.14042553,8.71980676 L6.14042553,6.76328502 C6.14042553,3.52161367 8.75955975,0.893719807 11.9904255,0.893719807 C15.2212913,0.893719807 17.8404255,3.52161367 17.8404255,6.76328502 L17.8404255,8.71980676" id="Shape"></path>
                                    <path d="M0.290425532,20.4589372 L0.290425532,12.5281804 C0.290425532,11.6521731 1.16347027,10.942029 2.24042553,10.942029 L21.7404255,10.942029 C22.8173808,10.942029 23.6904255,11.6521731 23.6904255,12.5281804 L23.6904255,20.4589372" id="Shape"></path>
                                </g>
                            </g>
                        </g>
                    </g>
                </g>
            </g>
        </g>
    </g>
</svg>