<?xml version="1.0" encoding="UTF-8"?>
<svg width="57px" height="41px" viewBox="0 0 57 41" version="1.1" xmlns="http://www.w3.org/2000/svg" xmlns:xlink="http://www.w3.org/1999/xlink">
    <!-- Generator: sketchtool 52.2 (67145) - http://www.bohemiancoding.com/sketch -->
    <title>A96CAECA-5B31-4873-8256-22B6768C0641@svg</title>
    <desc>Created with sketchtool.</desc>
    <g id="Design" stroke="none" stroke-width="1" fill="none" fill-rule="evenodd">
        <g id="Partners-UI" transform="translate(-1353.000000, -3087.000000)">
            <g id="2" transform="translate(215.000000, 2548.000000)">
                <g id="Group-11-Copy-5" transform="translate(963.000000, 469.000000)">
                    <g id="money" transform="translate(174.000000, 61.000000)">
                        <rect id="bound" x="0.995121951" y="0" width="59.004878" height="59"></rect>
                        <path d="M5.91219512,14.75 L52.6243902,14.75 C53.9822024,14.75 55.0829268,15.8506333 55.0829268,17.2083333 L55.0829268,41.7916667 C55.0829268,43.1493666 53.9822024,44.25 52.6243902,44.25 L5.91219512,44.25 C4.55438286,44.25 3.45365854,43.1493666 3.45365854,41.7916667 L3.45365854,17.2083333 C3.45365854,15.8506333 4.55438286,14.75 5.91219512,14.75 Z M29.2682927,39.3333333 C34.6995417,39.3333333 39.102439,34.9308 39.102439,29.5 C39.102439,24.0692 34.6995417,19.6666667 29.2682927,19.6666667 C23.8370436,19.6666667 19.4341463,24.0692 19.4341463,29.5 C19.4341463,34.9308 23.8370436,39.3333333 29.2682927,39.3333333 Z" id="Combined-Shape-Copy" fill="#FF725C" fill-rule="nonzero" opacity="0.3" transform="translate(29.268293, 29.500000) rotate(15.000000) translate(-29.268293, -29.500000) "></path>
                        <path d="M5.91219512,14.75 L52.6243902,14.75 C53.9822024,14.75 55.0829268,15.8506333 55.0829268,17.2083333 L55.0829268,41.7916667 C55.0829268,43.1493666 53.9822024,44.25 52.6243902,44.25 L5.91219512,44.25 C4.55438286,44.25 3.45365854,43.1493666 3.45365854,41.7916667 L3.45365854,17.2083333 C3.45365854,15.8506333 4.55438286,14.75 5.91219512,14.75 Z M29.2682927,39.3333333 C34.6995417,39.3333333 39.102439,34.9308 39.102439,29.5 C39.102439,24.0692 34.6995417,19.6666667 29.2682927,19.6666667 C23.8370436,19.6666667 19.4341463,24.0692 19.4341463,29.5 C19.4341463,34.9308 23.8370436,39.3333333 29.2682927,39.3333333 Z M29.2682927,34.4166667 C31.9839172,34.4166667 34.1853659,32.2154 34.1853659,29.5 C34.1853659,26.7846 31.9839172,24.5833333 29.2682927,24.5833333 C26.5526682,24.5833333 24.3512195,26.7846 24.3512195,29.5 C24.3512195,32.2154 26.5526682,34.4166667 29.2682927,34.4166667 Z" id="Combined-Shape" fill="#FF725C" fill-rule="nonzero"></path>
                    </g>
                </g>
            </g>
        </g>
    </g>
</svg>