<?xml version="1.0" encoding="UTF-8"?>
<svg width="50px" height="48px" viewBox="0 0 50 48" version="1.1" xmlns="http://www.w3.org/2000/svg" xmlns:xlink="http://www.w3.org/1999/xlink">
    <!-- Generator: sketchtool 52.2 (67145) - http://www.bohemiancoding.com/sketch -->
    <title>0A7F4404-BC6D-4EA8-BC41-3BCC001C5E61@svg</title>
    <desc>Created with sketchtool.</desc>
    <g id="Design" stroke="none" stroke-width="1" fill="none" fill-rule="evenodd">
        <g id="Partners-UI" transform="translate(-394.000000, -1412.000000)">
            <g id="1" transform="translate(215.000000, 1110.000000)">
                <g id="Group-11-Copy" transform="translate(0.000000, 216.000000)">
                    <g id="wallet-partner" transform="translate(174.000000, 84.000000)">
                        <rect id="bound" x="0" y="0" width="60" height="60"></rect>
                        <circle id="Oval-47" fill="#FF725C" fill-rule="nonzero" opacity="0.300000012" cx="51.25" cy="31.25" r="3.75"></circle>
                        <rect id="Rectangle-162" fill="#FF725C" fill-rule="nonzero" opacity="0.300000012" transform="translate(30.000000, 16.250000) rotate(-15.000000) translate(-30.000000, -16.250000) " x="7.5" y="7.5" width="45" height="17.5" rx="2.57142857"></rect>
                        <path d="M55,23.3420389 C53.8634308,22.8021138 52.5919965,22.5 51.25,22.5 C46.4175085,22.5 42.5,26.4175085 42.5,31.25 C42.5,36.0824915 46.4175085,40 51.25,40 C52.5919965,40 53.8634308,39.6978862 55,39.157961 L55,45 C55,47.7614237 52.7614238,50 50,50 L10,50 C7.23857625,50 5,47.7614237 5,45 L5,15 C5,12.2385762 7.23857625,10 10,10 L50,10 C52.7614238,10 55,12.2385762 55,15 L55,23.3420389 Z" id="Combined-Shape" fill="#FF725C" fill-rule="nonzero"></path>
                    </g>
                </g>
            </g>
        </g>
    </g>
</svg>