<?xml version="1.0" encoding="UTF-8"?>
<svg width="46px" height="46px" viewBox="0 0 46 46" version="1.1" xmlns="http://www.w3.org/2000/svg" xmlns:xlink="http://www.w3.org/1999/xlink">
    <!-- Generator: sketchtool 52.2 (67145) - http://www.bohemiancoding.com/sketch -->
    <title>0F49ACDF-4BB6-49AB-9A03-535881AC315C@svg</title>
    <desc>Created with sketchtool.</desc>
    <g id="Design" stroke="none" stroke-width="1" fill="none" fill-rule="evenodd">
        <g id="Partners-UI" transform="translate(-1358.000000, -1417.000000)">
            <g id="1" transform="translate(215.000000, 1110.000000)">
                <g id="Group-11-Copy-3" transform="translate(963.000000, 216.000000)">
                    <g id="chart-line-1" transform="translate(173.000000, 84.000000)">
                        <rect id="bound" x="0" y="0" width="60" height="60"></rect>
                        <path d="M12.5,47.5 L50,47.5 C51.3807118,47.5 52.5,48.6192882 52.5,50 C52.5,51.3807118 51.3807118,52.5 50,52.5 L10,52.5 C8.61928813,52.5 7.5,51.3807118 7.5,50 L7.5,10 C7.5,8.61928813 8.61928813,7.5 10,7.5 C11.3807119,7.5 12.5,8.61928813 12.5,10 L12.5,47.5 Z" id="Path-95" fill="#FF725C"></path>
                        <path d="M21.823843,36.7098528 C20.8795174,37.7171335 19.2974279,37.7681688 18.2901472,36.823843 C17.2828665,35.8795173 17.2318314,34.2974278 18.176157,33.2901473 L27.551157,23.2901472 C28.4644313,22.315988 29.9820448,22.2315072 30.9977983,23.0982834 L38.3971375,29.4123863 L48.037793,17.2008893 C48.8933433,16.1171923 50.4654138,15.9322429 51.5491108,16.7877931 C52.6328078,17.6433433 52.8177573,19.2154138 51.962207,20.2991107 L40.712207,34.5491108 C39.8334933,35.6621483 38.2059268,35.8222288 37.1272018,34.9017165 L29.5670735,28.450407 L21.823843,36.7098528 Z" id="Path-97" fill="#FF725C" opacity="0.3"></path>
                    </g>
                </g>
            </g>
        </g>
    </g>
</svg>